<svg width="22" height="23" viewBox="0 0 22 23" fill="none" xmlns="http://www.w3.org/2000/svg">
<path d="M20.3757 16.6729C19.6123 15.9036 17.7632 14.781 16.866 14.3286C15.6977 13.7401 15.6016 13.6921 14.6833 14.3743C14.0708 14.8296 13.6636 15.2363 12.9467 15.0834C12.2299 14.9305 10.6721 14.0685 9.30817 12.7089C7.94419 11.3492 7.03215 9.74629 6.87878 9.03185C6.72541 8.3174 7.13889 7.91499 7.58986 7.30103C8.22545 6.43563 8.17737 6.29139 7.63409 5.1231C7.21052 4.21442 6.05521 2.38264 5.28307 1.62301C4.45709 0.807125 4.45709 0.951359 3.92487 1.17252C3.49157 1.35483 3.07588 1.57643 2.68301 1.83455C1.91376 2.34562 1.48683 2.77015 1.18826 3.40815C0.889696 4.04615 0.755558 5.54186 2.29742 8.34289C3.83929 11.1439 4.92104 12.5762 7.16004 14.8089C9.39904 17.0417 11.1207 18.2422 13.6376 19.6537C16.7511 21.3975 17.9454 21.0576 18.5853 20.7595C19.2252 20.4615 19.6517 20.0384 20.1637 19.2691C20.4225 18.8769 20.6446 18.4617 20.8272 18.0287C21.0488 17.4984 21.1931 17.4984 20.3757 16.6729Z" fill="white" stroke="black" stroke-width="2" stroke-miterlimit="10"/>
</svg>
