<svg width="1227" height="2725" viewBox="0 0 1227 2725" fill="none" xmlns="http://www.w3.org/2000/svg">
<g clip-path="url(#clip0_45_2)">
<mask id="mask0_45_2" style="mask-type:luminance" maskUnits="userSpaceOnUse" x="2" y="6" width="1794" height="2601">
<path d="M2.216 6.72827H1795V2606.41H2.216V6.72827Z" fill="white"/>
</mask>
<g mask="url(#mask0_45_2)">
<path d="M80.2365 1656.46C65.8582 1656.68 51.4019 1656.22 36.9457 1654.94C36.106 1706.4 34.5651 1758.21 41.5595 1808.64C53.7132 1806.18 65.9361 1804.31 78.3148 1802.8C77.9253 1753.9 77.3886 1705.12 80.2365 1656.46ZM125.44 225.953C141.126 199.578 114.291 165.503 96.7617 186.621C95.2295 188.487 93.5328 189.775 91.8448 190.944C90.001 196.543 88.3822 202.141 87.4647 208.212C80.929 248.359 105.609 238.674 124.748 227.583C124.982 227.109 125.215 226.413 125.44 225.953ZM144.969 1797.31C150.12 1749.93 152.968 1701.97 157.27 1654.36C142.355 1654.7 127.596 1655.29 112.837 1655.87C109.677 1702.67 110.681 1749.93 110.984 1797.07C122.367 1797.9 133.595 1797.55 144.969 1797.31ZM184.261 176.121C189.489 166.777 195.402 158.84 201.86 151.73C192.104 145.777 183.491 136.434 177.033 122.898C171.96 112.043 169.883 100.15 169.883 88.2443C162.577 94.5391 155.348 101.425 148.51 108.903C141.585 116.367 133.742 125.001 125.83 134.449C133.82 138.195 141.507 144.371 148.042 154.766C157.045 168.88 161.581 185.215 162.577 202.023C168.801 197.003 175.033 191.523 180.721 185.57C181.413 182.416 182.564 179.275 184.261 176.121ZM276.054 181.601C272.21 173.663 268.367 165.844 264.368 158.262C249.15 167.71 233.767 177.514 220.774 192.456C220.549 196.661 219.32 201.09 217.008 205.058C220.393 215.676 223.925 226.071 227.387 236.571C244.224 219.645 260.291 201.09 276.054 181.601ZM288.433 3414.66C288.433 3413.25 288.511 3411.97 288.511 3410.69C283.975 3406.84 280.365 3400.07 279.672 3390.27C279.439 3386.76 279.205 3383.38 279.058 3379.99C255.296 3383.03 231.542 3382.56 207.858 3381.4C207.322 3391.9 206.941 3402.52 206.863 3412.32C234.001 3413.95 262.143 3422.48 288.433 3414.66ZM338.484 3423.29C338.406 3420.38 338.406 3417.8 338.25 3415.12C332.953 3415.12 328.417 3415.12 324.262 3415.12V3422.12C328.953 3422.24 333.792 3422.58 338.484 3423.29ZM341.635 3100.5C341.791 3076.81 342.328 3053.23 342.942 3029.66C307.347 3071.45 266.289 3105.17 240.078 3160.72C233.542 3174.72 222.315 3173.79 215.32 3166.2C187.256 3166.2 147.203 3166.2 132.824 3166.2C130.366 3166.91 127.596 3166.79 125.06 3165.85C111.53 3163.4 107.833 3140.18 114.144 3126.4C114.603 3104.47 114.525 3082.76 114.291 3060.82C103.687 3094.55 92.9182 3128.03 82.695 3161.89C80.6174 3199.69 79.1545 3237.5 79.1545 3275.43C104.838 3290.95 129.44 3310.44 154.197 3329.46C195.021 3330.16 236.304 3336.93 277.058 3330.63C275.976 3285.35 277.058 3239.84 280.131 3194.79C262.368 3232.26 250.457 3261.08 241.229 3279.99C228.539 3307.87 222.393 3317.32 220.393 3315.57C218.471 3313.71 221.086 3301.11 231.387 3270.88C241.073 3244.05 255.832 3201.56 284.355 3144.5C285.048 3137.14 285.818 3129.68 286.589 3122.2C286.667 3121.98 286.745 3121.62 286.745 3121.27C287.974 3110.42 293.124 3100.96 302.43 3101.2C315.493 3101.44 328.564 3101.2 341.635 3100.5ZM344.249 2962.56C344.405 2949.26 344.249 2936.06 344.094 2922.88C280.746 2923.12 217.545 2923.93 154.275 2924.17C152.353 2931.87 150.198 2939.69 148.12 2947.51C145.281 3003.76 147.817 3060.24 147.203 3116.36C172.107 3116.36 197.099 3116.36 222.081 3116.36C256.837 3055.57 305.806 3019.85 343.635 2963.25C343.869 2963.15 344.094 2962.91 344.249 2962.56ZM344.942 2872C346.483 2860.68 348.249 2849.59 349.867 2838.5C296.042 2838.5 242.38 2838.98 188.797 2845.98C183.335 2855.07 178.418 2864.54 173.414 2874.1C230.538 2873.98 287.662 2873.29 344.786 2873.17C344.786 2872.7 344.786 2872.35 344.942 2872ZM379.62 3489.46C384.303 3395.17 383.766 3300.99 383.541 3206.58C379.923 3205.29 376.313 3204.24 372.694 3203.19C365.622 3298.42 371.162 3394.34 372.391 3489.92C374.772 3489.7 377.153 3489.7 379.62 3489.46ZM451.659 734.998C476.338 701.856 502.939 671.63 530.536 643.968C488.942 561.808 447.503 479.648 406.446 397.028C380 344.055 353.555 290.95 328.027 236.913C323.413 226.886 316.497 215.098 310.576 202.719C283.594 237.031 255.832 269.714 225.699 297.258C289.818 421.891 354.092 546.406 418.366 670.802C429.437 692.17 440.509 713.643 451.659 734.998ZM542.915 3208.8C542.915 3208.68 542.915 3208.68 542.915 3208.33V3208.21C521.083 3206.82 495.477 3204.71 472.642 3201.68C456.575 3242.06 441.582 3286.05 416.444 3315.34C416.288 3339.96 416.132 3364.36 415.674 3388.86C420.288 3389.68 424.824 3390.03 429.437 3390.03C428.667 3325.73 444.43 3262.25 481.177 3234.7C498.628 3221.64 521.083 3212.3 542.915 3208.8ZM596.888 2883.79C597.814 2878.65 598.576 2873.52 599.346 2868.39C527.307 2866.05 455.658 2850.88 383.766 2860.45C382.537 2865.7 381.308 2870.83 380 2875.97C452.429 2876.44 524.615 2882.5 596.888 2883.79ZM624.337 3487.6C650.861 3425.86 647.554 3354.91 621.489 3294.69C592.966 3246.02 531.003 3246.14 495.789 3277.65C453.269 3315.93 451.806 3454.57 486.103 3507.43C522.39 3563.33 595.044 3555.27 624.337 3487.6ZM844.064 2994.65C844.22 2990.1 844.298 2985.66 844.298 2980.99C775.79 2981.59 707.214 2983.22 638.716 2983.45C639.867 2989.86 641.018 2996.29 641.944 3002.59C705.448 2980.18 779.019 2993.48 844.064 2994.65ZM852.443 3088.71C851.526 3073.77 848.063 3059.19 845.371 3044.36C777.712 3043.19 697.605 3027.09 633.868 3057.56C622.719 3062.69 615.11 3050.55 613.88 3036.9C612.954 3034.34 612.339 3031.3 612.114 3028.03C609.959 2995.46 600.965 2965.47 597.347 2933.5C523.923 2932.21 450.429 2925.92 376.927 2925.8C377.153 2940.03 377.153 2954.28 376.927 2968.39C503.32 2969.09 544.759 2974.34 544.759 2980.88C544.759 2987.54 503.242 2992.78 376.538 2993.26C375.845 3028.26 374.694 3063.27 374.469 3098.28C432.978 3093.38 491.331 3085.1 549.909 3092.21C551.216 3091.75 552.445 3091.51 553.831 3091.51C653.319 3091.4 752.963 3090.23 852.443 3088.71ZM875.816 3487.6C902.27 3425.86 898.963 3354.91 872.976 3294.69C844.453 3246.02 782.482 3246.14 747.267 3277.65C704.756 3315.93 703.293 3454.57 737.503 3507.43C773.799 3563.33 846.531 3555.27 875.816 3487.6ZM917.799 3146.94C917.263 3143.79 916.717 3140.65 916.336 3137.38C799.163 3139.48 681.998 3140.99 564.755 3141.35C562.677 3142.52 560.288 3143.09 557.449 3142.63C477.108 3130.85 397.071 3150.33 316.653 3150.91C309.502 3222.1 307.425 3293.64 311.035 3365.29C319.267 3365.29 329.949 3365.29 337.411 3365.29C336.329 3301.92 336.407 3238.67 342.094 3175.3C342.172 3162.94 347.478 3150.79 357.935 3150.91C372.85 3151.39 386.995 3157.1 401.529 3161.53C404.299 3162.35 406.602 3164.68 408.446 3167.48C412.904 3171.22 416.288 3178.22 416.288 3188.26C416.288 3207.16 416.288 3226.07 416.444 3244.98C427.36 3221.52 435.436 3193.39 444.967 3170.16C446.274 3167.25 447.815 3164.68 449.425 3162.94C451.659 3155.46 456.35 3149.98 463.648 3150.91C614.954 3172.96 766.26 3149.16 917.799 3146.94ZM921.253 1724.02C910.649 1703.6 900.192 1683.41 889.657 1662.99C877.512 1682.36 867.826 1704.41 863.212 1730.21C865.289 1732.19 867.211 1734.99 868.665 1738.96C881.737 1774.33 909.03 1757.52 919.409 1727.65C919.877 1726.12 920.639 1725.19 921.253 1724.02ZM924.335 3344.87C924.101 3295.51 923.945 3246.02 923.79 3196.78C809.473 3197.83 695.225 3211.84 581.046 3209.85C606.193 3215.69 629.488 3231.55 646.091 3261.66C646.48 3262.25 646.706 3262.94 647.017 3263.64C647.554 3264.57 648.091 3265.62 648.627 3266.79C663.395 3299.82 672.692 3340.56 675.003 3381.98C675.774 3381.98 677.462 3381.98 680.994 3381.98C681.461 3320.36 695.528 3261.08 730.742 3234.7C780.716 3197.35 858.286 3190.24 897.578 3261.66C897.881 3262.25 898.115 3262.94 898.426 3263.64C898.963 3264.57 899.5 3265.62 900.114 3266.79C910.338 3289.79 918.024 3316.74 922.413 3344.87C923.028 3344.87 923.72 3344.87 924.335 3344.87ZM1018.66 3199.34C1018.66 3182.77 1018.59 3186.97 1018.59 3182.19C998.14 3177.87 977.226 3181.95 956.624 3184.29C956.624 3188.96 956.624 3193.39 956.624 3198.06C977.226 3198.29 997.906 3199.34 1018.44 3199.34C1018.59 3199.34 1018.59 3199.34 1018.66 3199.34ZM1018.9 3410.81C998.374 3410.46 977.918 3410.1 957.394 3409.86C957.394 3419.9 957.472 3429.94 957.472 3439.98C957.472 3443.12 957.004 3445.82 956.468 3448.26C977.148 3448.26 996.374 3448.26 1017.13 3448.26C1017.9 3435.9 1018.44 3423.29 1018.9 3410.81ZM1019.82 3276.83C1019.67 3265.74 1019.43 3254.43 1019.36 3243.34C1018.98 3243.57 1018.82 3243.57 1018.44 3243.69C997.906 3246.02 977.382 3245.2 956.857 3244.98C956.857 3255.72 956.857 3266.45 956.926 3277.07C977.918 3277.19 998.832 3277.65 1019.82 3276.83ZM1019.97 3361.08C1020.13 3349.53 1020.13 3338.1 1020.13 3326.67C999.135 3327.48 978.152 3327.01 957.004 3326.78C957.16 3337.98 957.16 3348.84 957.16 3360.04C978.152 3360.39 998.988 3360.74 1019.97 3361.08ZM1100.94 2363.77C1111.46 2352.57 1122.69 2343.11 1134.45 2334.71C1111.08 2277.42 1086.56 2221.05 1064.95 2162C1054.65 2170.41 1043.81 2177.4 1033.58 2186.05C1056.95 2244.39 1079.02 2304.03 1100.94 2363.77ZM1196.88 2621.56C1212.95 2621.92 1229.02 2622.96 1245.16 2624.13C1210.95 2548.39 1186.05 2467.28 1155.52 2387.58C1154.22 2384.19 1152.83 2380.81 1151.52 2377.3C1139.45 2385.83 1127.61 2395.4 1116.77 2407.19C1142.91 2479.07 1169.13 2551.07 1196.88 2621.56ZM1236.56 3487.6C1263 3425.86 1259.77 3354.91 1233.71 3294.69C1205.18 3246.02 1143.22 3246.14 1108.01 3277.65C1065.49 3315.93 1064.02 3454.57 1098.32 3507.43C1134.53 3563.33 1207.26 3555.27 1236.56 3487.6ZM1285.76 2712.36C1285.68 2701.03 1285.68 2689.95 1285.53 2678.62C1253.93 2673.84 1222.48 2671.74 1190.88 2671.4C1188.43 2672.21 1185.97 2672.21 1183.5 2671.4C1133.22 2671.16 1082.86 2674.2 1032.43 2675.01C1008.21 2752.03 992.678 2834.77 982.61 2918.8C988.064 2918.8 993.448 2918.91 998.91 2918.91C998.91 2918.44 998.91 2918.1 998.988 2917.63C1010.75 2853.21 1019.67 2788.09 1028.2 2722.62C1028.82 2717.38 1030.35 2713.53 1032.27 2710.49C1034.89 2704.54 1039.35 2700.22 1045.81 2700.22C1121.46 2700.22 1205.72 2701.03 1285.76 2712.36ZM1286.83 2790.08C1286.75 2780.75 1286.68 2771.4 1286.53 2762.19C1218.56 2752.73 1096.55 2750.52 1057.96 2750.05C1050.49 2807 1042.5 2863.48 1032.58 2919.61C1071.94 2920.32 1111.31 2921.14 1150.52 2921.25C1163.21 2882.74 1178.51 2846.44 1191.12 2807.94C1194.04 2798.95 1198.73 2795.21 1203.64 2795.21C1205.88 2793.23 1208.49 2791.71 1211.64 2791.48C1236.71 2789.26 1261.85 2789.84 1286.83 2790.08ZM1282.91 3080.54C1288.3 3000.48 1288.53 2920.08 1287.52 2839.79C1263.93 2839.67 1240.24 2839.09 1216.64 2840.96C1203.18 2880.63 1187.2 2918.34 1174.82 2958.94C1171.2 2970.38 1164.74 2973.18 1158.6 2970.85C1158.06 2971.07 1157.51 2971.19 1156.98 2971.19C1109.85 2971.07 1062.73 2969.68 1015.67 2969.09C1015.21 3008.08 1012.74 3046.94 1012.98 3085.92C1092.01 3084.27 1171.13 3082.76 1250.24 3081.24C1252.39 2926.26 1256.47 2877.48 1260.85 2877.48C1265.08 2877.48 1268.07 2926.26 1266.54 3080.9C1271.99 3080.78 1277.46 3080.78 1282.91 3080.54ZM1432.68 2708.73C1355.64 2577.92 1287.6 2431.58 1216.26 2293.99C1133.46 2134.45 1050.81 1974.47 968.154 1814.7C962.925 1827.42 951.776 1833.84 944.011 1818.9C938.48 1808.28 933.407 1797.31 929.174 1786.11C926.335 1789.61 923.331 1792.53 920.18 1795.21C962.233 1904.1 998.91 2017.4 1039.89 2127.22C1046.04 2122.9 1052.03 2118 1057.42 2111.47C1063.72 2098.17 1078.18 2093.61 1084.63 2112.28C1117.3 2207.62 1161.43 2292.7 1193.26 2388.63C1220.64 2471.13 1249.01 2550.38 1285.45 2624.72C1286.22 2626.23 1286.75 2627.75 1287.14 2629.26C1291.45 2629.84 1295.68 2630.2 1299.98 2631.01C1306.67 2632.18 1311.13 2638.25 1313.51 2645.72C1316.28 2649.69 1318.13 2655.28 1318.2 2662.88C1318.44 2718.89 1319.59 2774.79 1320.2 2830.68C1359.1 2793.23 1395.63 2750.17 1432.68 2708.73ZM1495.04 2900.71C1438.29 2900.71 1352.57 2900.71 1320.74 2900.71C1320.74 2960.45 1319.67 3020.33 1315.74 3080.08C1321.59 3079.84 1327.51 3079.84 1333.43 3079.73C1332.74 3037.83 1331.66 2998.74 1334.19 2966.88C1334.66 2960.81 1335.04 2955.43 1335.42 2949.6L1335.81 2943.66C1335.97 2941.78 1335.65 2939.1 1337.5 2939.91C1339.96 2939.69 1342.5 2939.57 1345.04 2939.34C1351.11 2939.1 1356.8 2938.76 1362.26 2938.52C1371.72 2938.86 1380.02 2939.34 1387.01 2940.15C1415.23 2944 1425.61 2946.8 1425.68 2950.55C1425.68 2953.8 1414.69 2957.08 1386.78 2957.77C1379.79 2958.25 1371.79 2958.59 1362.49 2959.18C1358.65 2959.64 1354.49 2960.11 1350.03 2960.81C1349.57 2960.81 1349.5 2960.93 1349.57 2961.39C1349.57 2962.1 1349.57 2961.28 1349.57 2962.91C1349.5 2965.13 1349.42 2966.88 1349.26 2969.09C1347.5 2998.97 1349.04 3037.36 1349.8 3079.37C1397.7 3078.79 1445.6 3078.1 1493.5 3077.39C1492.03 3018.34 1489.34 2959.3 1495.04 2900.71ZM1505.26 3239.72C1500.49 3227.93 1495.88 3216.03 1491.73 3203.66C1491.5 3202.85 1491.42 3202.26 1491.19 3201.56C1344.57 3192.81 1198.19 3202.37 1051.58 3200.86C1051.88 3233.41 1052.49 3265.74 1052.81 3298.31C1060.8 3271.24 1073.25 3248.47 1091.47 3234.7C1141.45 3197.35 1219.1 3190.24 1258.31 3261.66C1258.62 3262.25 1258.85 3262.94 1259.24 3263.64C1259.77 3264.57 1260.31 3265.62 1260.85 3266.79C1271.69 3290.95 1279.53 3319.31 1283.91 3349.07C1284.69 3348.84 1285.45 3348.72 1286.3 3348.72C1296.29 3348.72 1297.21 3348.72 1305.67 3348.72C1310.36 3299.82 1325.12 3256.29 1353.88 3234.7C1397.93 3201.68 1463.43 3192.45 1505.26 3239.72ZM1498.96 3487.6C1525.4 3425.86 1522.1 3354.91 1496.11 3294.69C1467.59 3246.02 1405.62 3246.14 1370.41 3277.65C1327.81 3315.93 1326.43 3454.57 1360.65 3507.43C1396.93 3563.33 1469.66 3555.27 1498.96 3487.6ZM1532.63 3212.53C1531.86 3183.94 1530.63 3155.46 1529.25 3126.88C1372.02 3128.15 1214.79 3131.66 1057.5 3134.7C1057.42 3137.84 1057.26 3140.87 1057.42 3143.79C1057.5 3146.25 1057.64 3148.57 1057.72 3151.15C1206.26 3152.42 1354.65 3142.52 1503.1 3152.42C1512.95 3153.13 1518.1 3164.21 1518.87 3175.66C1519.25 3176.71 1519.72 3177.52 1520.02 3178.46C1523.86 3190.13 1528.1 3201.32 1532.63 3212.53ZM1537.86 2611.18C1539.09 2609.42 1540.4 2608.03 1541.93 2606.86C1464.36 2465.3 1391.39 2317.09 1316.52 2172.5C1099.39 1753.79 882.663 1334.25 667.542 912.959C628.484 836.41 589.504 759.967 550.524 683.418C522.927 710.949 496.56 741.056 471.88 774.317C668 1154.18 864.129 1534.03 1060.57 1913.66C1152.6 2091.28 1244.55 2269.01 1336.96 2446.4C1377.25 2523.88 1415.85 2606.04 1459.36 2679.68C1480.58 2657.15 1502.11 2635.57 1524.94 2616.43C1526.48 2615.14 1528.1 2614.44 1529.63 2613.86C1532.16 2611.76 1535.01 2610.83 1537.86 2611.18ZM1563 2962.44C1562.23 2959.64 1561.69 2956.6 1561.61 2953.11C1559.93 2899.66 1555.47 2846.79 1556.15 2793.35C1556.15 2786.8 1557.77 2781.21 1560.38 2776.9C1561.99 2767.91 1566.53 2762.41 1571.76 2760.43C1560.92 2727.29 1547.39 2696.6 1531.86 2668.12C1470.97 2721.35 1417.46 2790.89 1359.56 2850.88C1371.72 2850.88 1383.63 2850.88 1395.31 2850.88C1406.16 2839.79 1416.77 2829.17 1426.37 2819.25C1441.14 2802.68 1454.36 2787.74 1466.28 2774.32C1469.2 2770.82 1472.28 2767.79 1474.97 2764.29C1477.51 2760.78 1479.89 2757.29 1482.19 2753.9C1487.27 2747.01 1491.42 2739.78 1496.65 2733.83C1499.26 2730.8 1501.26 2728 1504.19 2724.96C1508.33 2721.35 1512.41 2717.96 1516.33 2714.68C1518.18 2713.05 1520.02 2711.54 1521.86 2710.02C1523.09 2708.15 1522.87 2711.19 1523.17 2712.36L1523.78 2716.67C1524.56 2722.5 1525.33 2728.11 1526.02 2733.48C1527.94 2745.26 1527.78 2750.05 1528.1 2756.24C1528.48 2762.19 1528.94 2767.67 1528.79 2772.45C1528.79 2782.26 1528.94 2790.08 1528.55 2796.15C1527.94 2808.28 1527.01 2813.65 1525.94 2813.65C1524.71 2813.65 1523.56 2808.63 1522.1 2796.73C1521.48 2790.65 1520.71 2783.19 1519.64 2773.74C1519.25 2768.96 1518.49 2763.94 1517.86 2758.34C1517.1 2753.2 1516.33 2745.26 1515.8 2743.86C1515.48 2742.58 1515.1 2741.3 1514.87 2739.78C1514.71 2739.43 1514.71 2737.92 1514.33 2738.38L1513.26 2739.55C1512.64 2740.24 1511.95 2740.94 1511.26 2741.53C1509.41 2744.21 1507.56 2746.78 1505.49 2749.59C1501.26 2754.71 1497.26 2762.31 1492.5 2769.42C1489.96 2773.27 1487.42 2777.12 1484.8 2781.09C1482.12 2784.71 1479.12 2788.09 1476.12 2791.71C1463.97 2805.95 1450.52 2821.93 1435.52 2839.33C1432.07 2842.94 1428.07 2847.15 1424.37 2850.88C1455.51 2850.88 1485.73 2850.88 1515.87 2850.88C1531.32 2850.88 1535.78 2875.61 1529.4 2890.2C1521.79 2946.34 1524.02 3003.99 1525.86 3060.82C1539.25 3028.96 1550.08 2994.77 1563 2962.44ZM1617.35 3145.77C1617.13 3139.6 1617.05 3133.17 1617.05 3126.4C1603.67 3126.4 1590.45 3126.52 1577.14 3126.52C1577.68 3129.44 1577.99 3132.36 1577.91 3135.85C1576.99 3156.39 1576.53 3177.17 1576.45 3197.83C1589.68 3197.59 1602.9 3196.78 1616.12 3196.54C1616.36 3196.54 1616.43 3196.78 1616.66 3196.78C1616.82 3181.02 1616.82 3165.38 1617.05 3149.62C1617.05 3148.35 1617.2 3146.94 1617.35 3145.77ZM1617.35 3274.03C1617.13 3264.81 1617.05 3255.48 1616.89 3246.37C1616.66 3246.37 1616.36 3246.37 1616.12 3246.37C1602.9 3246.49 1589.68 3247.3 1576.45 3247.66C1576.68 3258.16 1576.76 3268.44 1576.99 3278.94C1590.45 3276.6 1603.82 3274.38 1617.35 3274.03ZM1619.51 3356.89C1619.2 3345.8 1618.89 3334.83 1618.5 3323.75C1618.36 3323.75 1618.12 3323.87 1617.89 3323.87C1604.51 3323.98 1591.29 3326.19 1578.07 3328.53C1578.29 3337.64 1578.53 3346.73 1578.76 3355.84C1592.45 3356.08 1605.98 3356.54 1619.51 3356.89ZM1622.74 3424.35C1622.36 3418.39 1622.12 3412.68 1621.81 3406.6C1607.82 3406.49 1593.98 3406.01 1579.91 3405.67C1580.07 3413.83 1580.15 3421.77 1580.29 3429.94C1594.37 3429.01 1608.59 3426.09 1622.74 3424.35ZM1679.78 3363.3C1679.25 3285.7 1677.32 3208.33 1685.78 3131.9C1673.71 3132.12 1661.87 3133.41 1649.95 3136.33C1650.03 3144.5 1650.26 3152.32 1650.72 3159.9C1650.88 3163.4 1650.57 3166.55 1649.72 3169.47C1649.03 3234.47 1650.03 3299.24 1652.64 3364.01C1661.64 3364.12 1670.79 3364.47 1679.78 3363.3ZM1738.59 3166.2C1730.68 3166.2 1722.3 3166.2 1715.53 3166.2C1710.23 3166.2 1712.69 3481.05 1712.69 3510.93C1718.61 3511.05 1724.45 3511.05 1730.37 3510.7C1733.91 3474.06 1735.3 3437.07 1735.37 3399.84C1735.37 3394.94 1736.37 3390.73 1737.68 3387.23C1736.06 3313.35 1731.06 3239.6 1738.59 3166.2ZM1756.28 2766.16C1756.05 2730.8 1755.74 2695.55 1757.36 2660.42C1694.08 2646.31 1630.27 2652.25 1566.53 2654.13C1583.99 2689.48 1598.52 2727.4 1609.9 2768.6C1615.66 2768.96 1621.51 2769.42 1627.27 2769.89C1619.97 2752.73 1614.28 2735.82 1609.59 2719.94C1607.98 2714.58 1606.28 2709.2 1604.75 2703.95C1601.82 2694.14 1599.05 2684.7 1596.37 2675.48C1594.59 2672.21 1597.36 2672.57 1598.98 2672.09L1604.13 2671.04C1607.51 2670.23 1610.89 2669.41 1614.12 2668.72C1616.36 2668.24 1618.5 2667.78 1620.58 2667.19C1622.36 2667.19 1624.12 2667.07 1625.73 2666.84C1652.72 2665.44 1672.87 2670.58 1688.16 2673.38C1718.61 2680.15 1729.91 2682.71 1729.91 2686.32C1730.07 2689.6 1717.99 2693.33 1687.09 2691C1671.78 2690.29 1651.57 2687.15 1626.89 2689.95C1625.35 2690.19 1623.81 2690.29 1622.12 2690.41L1619.81 2691L1618.66 2691.23C1618.66 2691.46 1618.43 2691.46 1618.43 2691.58L1618.5 2691.94L1618.66 2692.16L1619.2 2693.8C1620.82 2698.94 1622.5 2704.18 1624.12 2709.68C1630.42 2730.1 1638.11 2751.34 1648.03 2771.76C1684.47 2774.91 1720.61 2777.36 1756.28 2766.16ZM1761.43 2901.17C1760.74 2872.7 1759.35 2844.11 1759.9 2815.75C1704.7 2831.85 1648.49 2818.08 1592.45 2817.74C1592.45 2818.08 1592.45 2818.44 1592.45 2818.67C1592.83 2820.54 1593.14 2822.52 1593.29 2824.74C1595.29 2850.64 1594.67 2876.78 1596.59 2902.8C1651.42 2910.52 1706.46 2903.04 1761.43 2901.17ZM1794.65 2922.76C1794.8 2933.5 1791.18 2940.51 1786.34 2944.24C1783.73 2947.85 1780.12 2950.55 1775.51 2950.55C1726.53 2951.12 1677.55 2957.77 1628.74 2955.67C1626.2 2961.28 1621.97 2965.47 1616.12 2965.71C1610.36 2965.24 1604.75 2966.29 1599.21 2968.05C1583.38 3001.77 1572.07 3040.05 1558.08 3075.64C1558.92 3075.88 1559.85 3076.45 1560.69 3076.93C1595.9 3076.57 1631.04 3076.45 1666.17 3076.23C1670.94 3076.23 1674.55 3078.91 1677.17 3082.76C1685.78 3082.06 1694.16 3081.95 1701.69 3081.95C1705.54 3081.95 1708.62 3083.34 1711.15 3085.92C1717.99 3090.23 1723.3 3100.62 1721.22 3114.73C1721.07 3115.21 1721.07 3115.9 1721 3116.36C1733.76 3116.36 1745.06 3116.36 1756.44 3116.36C1766.28 3116.36 1771.51 3127.34 1772.12 3138.77C1773.43 3143.45 1773.96 3148.81 1773.12 3154.88C1760.66 3240.08 1770.28 3327.48 1770.97 3413.83C1771.04 3419.9 1769.74 3425.04 1767.74 3428.89C1767.2 3455.27 1765.66 3481.52 1763.51 3507.66C1781.89 3508.36 1780.8 3554 1760.97 3557.49C1726.45 3563.68 1691.78 3559.36 1657.1 3559.02C1635.96 3558.66 1635.96 3508.83 1657.1 3509.19C1664.71 3509.19 1672.33 3509.53 1679.86 3509.88C1679.86 3479.78 1679.86 3440.21 1679.86 3412.9C1671.56 3413.61 1663.33 3413.83 1654.95 3413.83C1655.41 3422.12 1655.72 3430.4 1656.18 3438.7C1656.79 3448.84 1653.72 3455.73 1649.34 3459.47C1647.1 3467.06 1642.34 3473.01 1635.27 3473.13C1605.51 3474.06 1576.68 3483.04 1547.08 3476.5C1545.01 3476.04 1543.31 3474.99 1541.78 3473.82C1535.01 3501.01 1524.1 3526.1 1508.03 3545.71C1458.13 3606.75 1368.87 3619.23 1329.51 3527.51C1315.28 3494.24 1305.9 3446.52 1304.36 3398.55C1296.99 3398.55 1290.45 3398.55 1287.76 3398.55C1288.14 3454.1 1275.61 3509.07 1245.63 3545.71C1195.81 3606.75 1106.47 3619.23 1067.11 3527.51C1062.87 3517.35 1058.95 3506.03 1055.64 3493.67C1053.03 3496.47 1049.8 3498.1 1045.81 3498.1C1002.06 3498.1 925.564 3498.1 925.564 3498.1C920.414 3498.1 916.492 3495.3 913.722 3490.97C906.953 3511.51 897.578 3530.3 884.888 3545.71C834.992 3606.75 745.735 3619.23 706.366 3527.51C695.45 3501.83 687.304 3467.87 683.539 3431.69C676.536 3431.69 674.614 3431.69 674.233 3431.69C670.312 3475.33 657.396 3516.3 633.409 3545.71C583.591 3606.75 494.248 3619.23 454.887 3527.51C444.889 3503.93 437.202 3473.01 433.047 3439.98C427.135 3439.98 421.214 3439.87 415.371 3438.7C414.981 3438.58 414.756 3438.58 414.444 3438.34C413.83 3460.05 412.904 3481.88 411.752 3503.58C411.752 3504.4 411.527 3505.22 411.371 3506.03C413.908 3520.38 408.913 3538.12 396.223 3538.24C379.152 3538.36 362.237 3540.92 345.254 3542.45C326.261 3544.08 324.495 3503.93 339.558 3494.6C339.558 3487.48 339.488 3480.47 339.333 3473.35C329.871 3471.26 320.184 3471.72 310.576 3471.84C304.733 3471.84 300.578 3468.11 297.894 3462.61C263.061 3474.4 225.777 3459.12 190.329 3462.04C179.725 3463.09 174.497 3450.94 174.497 3438.7C174.185 3436.48 173.951 3434.15 173.951 3431.69C173.951 3417.58 174.029 3398.19 175.189 3379.99C167.805 3379.64 160.421 3379.3 152.968 3379.06C151.739 3379.06 150.579 3378.94 149.427 3378.6C147.047 3378.6 144.511 3377.77 142.052 3375.79C117.451 3357.01 93.3078 3336.81 67.6241 3321.53C67.2432 3321.41 67.1653 3321.17 66.7844 3321.07C57.6346 3323.87 46.7101 3316.05 46.4071 3297.61C45.7146 3251.86 47.3334 3206.34 50.0169 3160.95C49.5581 3156.39 49.8697 3151.61 51.4019 3146.83C75.7006 3065.02 103.99 2986.13 124.826 2902.22C123.908 2895.1 124.67 2887.28 128.669 2880.29C141.896 2857.06 153.193 2831.16 166.957 2808.4C168.42 2805.95 170.038 2804.31 171.649 2803.03C174.185 2799.76 177.336 2797.44 181.257 2796.96C242.839 2788.21 304.352 2788.68 366.159 2788.68C374.079 2788.68 379.152 2795.79 381.152 2804.66C382.078 2806.41 382.848 2808.4 383.541 2810.62C462.263 2800.12 540.534 2819.72 619.412 2819.01C625.869 2819.01 630.405 2823.69 632.873 2830.22C635.175 2833.02 636.941 2836.99 638.023 2842.25C643.788 2872.47 651.778 2901.53 658.47 2931.4C658.703 2932.1 658.703 2932.69 658.781 2933.5C724.899 2932.92 791.095 2931.28 857.213 2931.06C857.75 2931.06 858.217 2931.28 858.676 2931.4C859.057 2931.28 859.516 2931.06 859.983 2931.06C869.67 2931.06 875.279 2942.49 876.361 2955.91C877.971 2976.91 877.201 2997.45 875.513 3018.22C875.513 3018.58 875.357 3018.7 875.357 3018.82C875.357 3019.16 875.513 3019.39 875.513 3019.63C876.049 3043.43 883.658 3064.44 885.199 3088.24C916.873 3087.54 948.625 3087.07 980.23 3086.49C979.996 3050.55 981.918 3014.73 982.61 2978.89C982.151 2978.67 981.762 2978.55 981.303 2978.31C979.303 2977.5 977.46 2976.91 975.538 2976.21C975.079 2976.21 972.231 2975.51 971.539 2975.4C971.694 2975.4 971.772 2975.4 971.997 2975.4C964.925 2974.23 958.779 2968.27 956.468 2958.47C950.78 2953.34 946.625 2943.88 947.932 2931.4C958.779 2830.8 977.148 2732.08 1006.98 2640.7C1008.67 2635.91 1010.75 2632.76 1013.13 2630.78C1015.67 2627.52 1018.9 2625.53 1023.05 2625.53C1068.33 2625.06 1113.54 2622.26 1158.75 2621.56C1105.08 2482.92 1056.95 2339.16 1001.52 2201.79C998.832 2194.9 998.451 2188.37 999.75 2182.54C997.828 2172.5 999.135 2160.83 1006.14 2153.13C1007.45 2151.85 1008.83 2150.44 1010.36 2149.16C968.31 2036.19 930.793 1919.5 887.199 1807.93C886.428 1807.93 885.736 1807.7 884.965 1807.7C879.971 1812.49 873.201 1813.64 868.051 1808.28C853.603 1793.34 840.913 1775.02 832.075 1751.8C829.685 1745.27 829.305 1738.96 830.456 1733.48C829.919 1729.97 829.919 1726.12 830.456 1722.15C835.996 1685.16 850.219 1652.83 867.514 1626.12C868.051 1625.18 868.665 1624.47 869.358 1623.78C728.898 1352.22 588.352 1080.3 448.118 808.393C444.889 813.295 441.582 818.315 438.431 823.335C423.75 846.556 400.603 811.31 415.137 788.089C419.292 781.676 423.516 775.369 427.672 768.837C350.482 619.222 273.215 469.739 195.947 319.888C180.418 321.53 169.727 286.863 186.183 273.906C190.719 270.41 195.021 266.797 199.557 262.946C196.484 253.957 193.411 244.969 190.563 235.862C164.42 261.658 132.747 281.502 104.224 285.352C107.452 354.082 104.457 425.269 104.527 493.775C104.682 642.102 104.457 790.429 104.224 938.874C104.068 1085.79 103.834 1232.83 104.068 1379.87C104.068 1441.49 101.453 1505.33 103.99 1567.53C135.594 1567.41 166.186 1579.32 182.798 1607.44C185.179 1611.53 186.564 1615.96 186.945 1620.5C190.104 1625.76 192.026 1633.23 191.1 1642.1C184.642 1704.07 182.339 1766.85 174.722 1828.7C173.112 1842.48 165.961 1847.61 158.967 1846.56C158.119 1846.79 157.27 1847.02 156.119 1847.02C144.969 1847.02 133.742 1847.5 122.445 1847.26C118.524 1863.95 112.066 1878.18 102.458 1890.32C91.7669 1903.62 75.2418 1915.99 67.9357 1934.44C61.478 1950.54 64.7848 1985.9 80.8511 1985.9C98.0688 1985.66 104.838 1964.19 100.683 1940.73C95.3766 1909.69 126.981 1896.4 132.435 1927.44C139.438 1967.46 130.669 2008.43 105.453 2027.56C83.0758 2044.25 53.0207 2033.97 40.564 1999.79C27.4928 1963.96 28.6441 1921.82 48.5626 1892.43C55.2454 1882.62 66.3949 1872.7 75.9256 1861.27C74.7743 1858.93 73.9346 1856.49 73.3893 1853.67C73.3893 1853.45 73.3893 1853.33 73.3893 1853.09C60.0151 1854.72 46.7101 1856.95 33.4917 1860.56C24.6448 1863.13 15.9624 1857.06 13.2703 1843.17C-0.181829 1772.68 4.19833 1699.63 4.50131 1627.17C4.50131 1617.01 7.88598 1610.01 12.344 1606.15C14.6553 1599.39 19.1134 1594.25 25.8048 1593.91C42.5637 1580.49 64.629 1571.5 87.6118 1568.58C84.7725 1501.71 87.6897 1432.86 87.6118 1366.57C87.4647 1218.25 87.6897 1069.92 87.9234 921.593C88.0014 774.554 88.2351 627.515 88.0014 480.476C88.0014 416.28 90.8407 349.535 87.7676 284.997C52.8649 277.06 43.412 220.237 61.8589 170.628C87.9234 100.965 146.277 38.2939 195.947 14.8365C218.082 4.21824 242.917 8.18695 260.758 23.5887C264.827 24.5217 268.601 28.0305 271.137 35.2582C283.741 52.9991 289.203 78.9008 280.746 111.465C288.199 123.253 294.665 136.21 300.967 149.273C307.728 132.242 327.413 129.548 330.486 154.056C333.87 181.483 375.62 252.21 391.531 284.537C441.124 385.595 491.634 485.837 542.3 585.856C547.529 596.238 552.835 606.738 558.219 617.238C558.522 616.896 558.912 616.542 559.215 616.187C576.51 600.443 592.118 638.488 578.207 656.57C780.56 1055.45 985.146 1451.99 1189.89 1848.19C1319.97 2099.68 1446.06 2358.75 1582.14 2603.01C1582.37 2603.36 1582.37 2603.7 1582.61 2604.06C1648.26 2601.84 1713.77 2597.63 1779.04 2615.26C1786.88 2617.48 1790.5 2625.77 1790.8 2634.86C1791.04 2636.97 1791.18 2639.53 1791.04 2642.22C1787.95 2685.17 1788.88 2728.11 1789.11 2771.28C1792.34 2775.25 1794.34 2781.44 1793.8 2790.08C1790.65 2834.31 1794.34 2878.53 1794.65 2922.76ZM246.994 102.017C246.683 102.017 248.535 96.9965 248.379 97.693C249.375 91.6217 249.072 96.6417 248.916 89.8739C248.604 81.3582 246.302 70.74 243.151 61.1731C243.073 60.8182 242.917 60.3452 242.839 60.0035C235.074 54.5104 224.314 54.6286 218.549 56.8495C215.857 57.7826 213.165 59.1887 210.473 60.3452C210.014 61.9878 209.399 63.6174 208.629 65.2469C207.088 68.6374 203.937 77.0347 203.79 77.6261C203.322 79.6104 202.942 81.5948 202.63 83.5791C202.483 84.7356 202.405 86.8382 202.405 87.193C202.405 89.4139 203.322 94.1974 204.552 95.9452C208.248 102.017 208.707 102.831 214.628 106.563C214.628 106.563 214.706 106.563 214.706 106.8C214.853 106.8 214.931 106.918 215.165 106.918L215.087 106.8C216.16 107.26 220.237 109.126 221.388 109.481C222.471 109.954 223.7 110.296 224.773 110.414C225.007 110.414 225.466 110.65 226.08 110.65C228.928 110.887 231.698 110.887 234.382 110.65C235.152 110.296 238.771 109.244 239.532 108.903C242.917 107.26 244.38 106.8 246.994 102.017Z" fill="#EEEEEE"/>
</g>
<path d="M998.599 1681.07C1252.24 2176 1454.52 2581.06 1450.52 2585.74C1446.44 2590.52 1237.63 2193.15 984.073 1698.35C730.509 1203.42 528.155 798.366 532.233 793.583C536.223 788.904 745.043 1186.27 998.599 1681.07Z" fill="#EEEEEE"/>
<path d="M215.163 106.918C214.93 106.918 214.852 106.8 214.706 106.8C214.852 106.8 214.93 106.8 215.086 106.8L215.163 106.918Z" fill="#EEEEEE"/>
<path d="M215.086 106.799C214.93 106.799 214.853 106.799 214.706 106.799V106.563C214.706 106.563 214.853 106.563 215.086 106.799Z" fill="#EEEEEE"/>
<path d="M214.702 106.563V106.799C214.702 106.563 214.628 106.563 214.628 106.563C214.628 106.563 214.628 106.563 214.702 106.563Z" fill="#EEEEEE"/>
</g>
<defs>
<clipPath id="clip0_45_2">
<rect width="1795" height="2725" fill="white"/>
</clipPath>
</defs>
</svg>
