<svg width="1227" height="2267" viewBox="0 0 1227 2267" fill="none" xmlns="http://www.w3.org/2000/svg">
<g clip-path="url(#clip0_45_2)">
<mask id="mask0_45_2" style="mask-type:luminance" maskUnits="userSpaceOnUse" x="2" y="5" width="1794" height="2164">
<path d="M2.216 5.59741H1795V2168.34H2.216V5.59741Z" fill="white"/>
</mask>
<g mask="url(#mask0_45_2)">
<path d="M80.2365 1378.05C65.8582 1378.24 51.4019 1377.86 36.9457 1376.78C36.106 1419.6 34.5651 1462.7 41.5595 1504.65C53.7132 1502.61 65.9361 1501.06 78.3148 1499.8C77.9253 1459.12 77.3886 1418.54 80.2365 1378.05ZM125.44 187.976C141.126 166.034 114.291 137.686 96.7617 155.255C95.2295 156.807 93.5328 157.879 91.8448 158.852C90.001 163.509 88.3822 168.166 87.4647 173.217C80.929 206.616 105.609 198.559 124.748 189.332C124.982 188.938 125.215 188.359 125.44 187.976ZM144.969 1495.23C150.12 1455.82 152.968 1415.91 157.27 1376.3C142.355 1376.59 127.596 1377.08 112.837 1377.56C109.677 1416.49 110.681 1455.82 110.984 1495.03C122.367 1495.72 133.595 1495.43 144.969 1495.23ZM184.261 146.52C189.489 138.746 195.402 132.143 201.86 126.228C192.104 121.276 183.491 113.503 177.033 102.242C171.96 93.2118 169.883 83.3177 169.883 73.4127C162.577 78.6495 155.348 84.3782 148.51 90.5989C141.585 96.8087 133.742 103.991 125.83 111.852C133.82 114.968 141.507 120.106 148.042 128.754C157.045 140.496 161.581 154.085 162.577 168.068C168.801 163.892 175.033 159.333 180.721 154.38C181.413 151.756 182.564 149.143 184.261 146.52ZM276.054 151.078C272.21 144.475 268.367 137.97 264.368 131.662C249.15 139.523 233.767 147.678 220.774 160.109C220.549 163.607 219.32 167.292 217.008 170.593C220.393 179.427 223.925 188.075 227.387 196.81C244.224 182.729 260.291 167.292 276.054 151.078ZM288.433 2840.75C288.433 2839.58 288.511 2838.51 288.511 2837.45C283.975 2834.24 280.365 2828.61 279.672 2820.46C279.439 2817.54 279.205 2814.73 279.058 2811.91C255.296 2814.43 231.542 2814.04 207.858 2813.08C207.322 2821.81 206.941 2830.65 206.863 2838.8C234.001 2840.16 262.143 2847.25 288.433 2840.75ZM338.484 2847.93C338.406 2845.5 338.406 2843.36 338.25 2841.13C332.953 2841.13 328.417 2841.13 324.262 2841.13V2846.96C328.953 2847.06 333.792 2847.34 338.484 2847.93ZM341.635 2579.39C341.791 2559.68 342.328 2540.07 342.942 2520.45C307.347 2555.22 266.289 2583.27 240.078 2629.48C233.542 2641.14 222.315 2640.36 215.32 2634.04C187.256 2634.04 147.203 2634.04 132.824 2634.04C130.366 2634.63 127.596 2634.53 125.06 2633.76C111.53 2631.71 107.833 2612.4 114.144 2600.94C114.603 2582.69 114.525 2564.63 114.291 2546.37C103.687 2574.44 92.9182 2602.29 82.695 2630.46C80.6174 2661.91 79.1545 2693.36 79.1545 2724.92C104.838 2737.83 129.44 2754.04 154.197 2769.87C195.021 2770.45 236.304 2776.08 277.058 2770.84C275.976 2733.17 277.058 2695.31 280.131 2657.83C262.368 2689 250.457 2712.98 241.229 2728.71C228.539 2751.91 222.393 2759.77 220.393 2758.31C218.471 2756.76 221.086 2746.28 231.387 2721.13C241.073 2698.81 255.832 2663.46 284.355 2615.99C285.048 2609.87 285.818 2603.66 286.589 2597.44C286.667 2597.25 286.745 2596.96 286.745 2596.66C287.974 2587.64 293.124 2579.77 302.43 2579.97C315.493 2580.17 328.564 2579.97 341.635 2579.39ZM344.249 2464.63C344.405 2453.57 344.249 2442.59 344.094 2431.62C280.746 2431.82 217.545 2432.5 154.275 2432.7C152.353 2439.1 150.198 2445.61 148.12 2452.11C145.281 2498.9 147.817 2545.89 147.203 2592.59C172.107 2592.59 197.099 2592.59 222.081 2592.59C256.837 2542.01 305.806 2512.3 343.635 2465.21C343.869 2465.12 344.094 2464.93 344.249 2464.63ZM344.942 2389.29C346.483 2379.88 348.249 2370.65 349.867 2361.43C296.042 2361.43 242.38 2361.82 188.797 2367.65C183.335 2375.21 178.418 2383.08 173.414 2391.04C230.538 2390.94 287.662 2390.36 344.786 2390.27C344.786 2389.87 344.786 2389.59 344.942 2389.29ZM379.62 2902.98C384.303 2824.53 383.766 2746.18 383.541 2667.64C379.923 2666.57 376.313 2665.69 372.694 2664.82C365.622 2744.05 371.162 2823.85 372.391 2903.36C374.772 2903.17 377.153 2903.17 379.62 2902.98ZM451.659 611.464C476.338 583.892 502.939 558.747 530.536 535.734C488.942 467.383 447.503 399.032 406.446 330.298C380 286.228 353.555 242.049 328.027 197.094C323.413 188.752 316.497 178.946 310.576 168.647C283.594 197.193 255.832 224.382 225.699 247.297C289.818 350.982 354.092 454.57 418.366 558.058C429.437 575.835 440.509 593.699 451.659 611.464ZM542.915 2669.49C542.915 2669.39 542.915 2669.39 542.915 2669.09V2668.99C521.083 2667.84 495.477 2666.09 472.642 2663.56C456.575 2697.16 441.582 2733.75 416.444 2758.12C416.288 2778.61 416.132 2798.9 415.674 2819.29C420.288 2819.96 424.824 2820.26 429.437 2820.26C428.667 2766.77 444.43 2713.95 481.177 2691.03C498.628 2680.17 521.083 2672.39 542.915 2669.49ZM596.888 2399.1C597.814 2394.82 598.576 2390.56 599.346 2386.29C527.307 2384.34 455.658 2371.72 383.766 2379.68C382.537 2384.06 381.308 2388.32 380 2392.59C452.429 2392.99 524.615 2398.03 596.888 2399.1ZM624.337 2901.42C650.861 2850.06 647.554 2791.04 621.489 2740.94C592.966 2700.45 531.003 2700.55 495.789 2726.76C453.269 2758.61 451.806 2873.95 486.103 2917.92C522.39 2964.43 595.044 2957.73 624.337 2901.42ZM844.064 2491.33C844.22 2487.54 844.298 2483.85 844.298 2479.97C775.79 2480.46 707.214 2481.82 638.716 2482.01C639.867 2487.35 641.018 2492.69 641.944 2497.93C705.448 2479.29 779.019 2490.35 844.064 2491.33ZM852.443 2569.58C851.526 2557.15 848.063 2545.02 845.371 2532.69C777.712 2531.71 697.605 2518.32 633.868 2543.66C622.719 2547.94 615.11 2537.84 613.88 2526.48C612.954 2524.34 612.339 2521.82 612.114 2519.1C609.959 2492.01 600.965 2467.06 597.347 2440.46C523.923 2439.39 450.429 2434.15 376.927 2434.05C377.153 2445.89 377.153 2457.74 376.927 2469.48C503.32 2470.06 544.759 2474.44 544.759 2479.87C544.759 2485.41 503.242 2489.78 376.538 2490.17C375.845 2519.29 374.694 2548.42 374.469 2577.54C432.978 2573.46 491.331 2566.58 549.909 2572.49C551.216 2572.11 552.445 2571.91 553.831 2571.91C653.319 2571.81 752.963 2570.84 852.443 2569.58ZM875.816 2901.42C902.27 2850.06 898.963 2791.04 872.976 2740.94C844.453 2700.45 782.482 2700.55 747.267 2726.76C704.756 2758.61 703.293 2873.95 737.503 2917.92C773.799 2964.43 846.531 2957.73 875.816 2901.42ZM917.799 2618.03C917.263 2615.4 916.717 2612.79 916.336 2610.07C799.163 2611.82 681.998 2613.07 564.755 2613.37C562.677 2614.34 560.288 2614.82 557.449 2614.44C477.108 2604.63 397.071 2620.85 316.653 2621.33C309.502 2680.55 307.425 2740.07 311.035 2799.67C319.267 2799.67 329.949 2799.67 337.411 2799.67C336.329 2746.96 336.407 2694.34 342.094 2641.62C342.172 2631.33 347.478 2621.23 357.935 2621.33C372.85 2621.72 386.995 2626.48 401.529 2630.16C404.299 2630.84 406.602 2632.79 408.446 2635.11C412.904 2638.22 416.288 2644.05 416.288 2652.4C416.288 2668.12 416.288 2683.85 416.444 2699.58C427.36 2680.07 435.436 2656.66 444.967 2637.34C446.274 2634.92 447.815 2632.79 449.425 2631.33C451.659 2625.11 456.35 2620.55 463.648 2621.33C614.954 2639.67 766.26 2619.87 917.799 2618.03ZM921.253 1434.26C910.649 1417.27 900.192 1400.48 889.657 1383.49C877.512 1399.6 867.826 1417.95 863.212 1439.41C865.289 1441.06 867.211 1443.39 868.665 1446.69C881.737 1476.11 909.03 1462.13 919.409 1437.28C919.877 1436.01 920.639 1435.23 921.253 1434.26ZM924.335 2782.68C924.101 2741.62 923.945 2700.45 923.79 2659.48C809.473 2660.36 695.225 2672.01 581.046 2670.36C606.193 2675.22 629.488 2688.41 646.091 2713.46C646.48 2713.95 646.706 2714.53 647.017 2715.11C647.554 2715.88 648.091 2716.76 648.627 2717.73C663.395 2745.21 672.692 2779.1 675.003 2813.56C675.774 2813.56 677.462 2813.56 680.994 2813.56C681.461 2762.29 695.528 2712.98 730.742 2691.03C780.716 2659.96 858.286 2654.05 897.578 2713.46C897.881 2713.95 898.115 2714.53 898.426 2715.11C898.963 2715.88 899.5 2716.76 900.114 2717.73C910.338 2736.86 918.024 2759.29 922.413 2782.68C923.028 2782.68 923.72 2782.68 924.335 2782.68ZM1018.66 2661.61C1018.66 2647.83 1018.59 2651.33 1018.59 2647.35C998.14 2643.75 977.226 2647.15 956.624 2649.1C956.624 2652.98 956.624 2656.66 956.624 2660.55C977.226 2660.74 997.906 2661.61 1018.44 2661.61C1018.59 2661.61 1018.59 2661.61 1018.66 2661.61ZM1018.9 2837.54C998.374 2837.25 977.918 2836.95 957.394 2836.76C957.394 2845.11 957.472 2853.46 957.472 2861.81C957.472 2864.43 957.004 2866.67 956.468 2868.7C977.148 2868.7 996.374 2868.7 1017.13 2868.7C1017.9 2858.41 1018.44 2847.93 1018.9 2837.54ZM1019.82 2726.09C1019.67 2716.86 1019.43 2707.44 1019.36 2698.22C1018.98 2698.41 1018.82 2698.41 1018.44 2698.51C997.906 2700.45 977.382 2699.77 956.857 2699.58C956.857 2708.52 956.857 2717.45 956.926 2726.28C977.918 2726.38 998.832 2726.76 1019.82 2726.09ZM1019.97 2796.17C1020.13 2786.56 1020.13 2777.05 1020.13 2767.54C999.135 2768.22 978.152 2767.83 957.004 2767.64C957.16 2776.95 957.16 2785.99 957.16 2795.31C978.152 2795.59 998.988 2795.89 1019.97 2796.17ZM1100.94 1966.48C1111.46 1957.17 1122.69 1949.3 1134.45 1942.31C1111.08 1894.64 1086.56 1847.75 1064.95 1798.62C1054.65 1805.62 1043.81 1811.44 1033.58 1818.63C1056.95 1867.17 1079.02 1916.78 1100.94 1966.48ZM1196.88 2180.95C1212.95 2181.24 1229.02 2182.11 1245.16 2183.08C1210.95 2120.08 1186.05 2052.6 1155.52 1986.29C1154.22 1983.47 1152.83 1980.66 1151.52 1977.74C1139.45 1984.84 1127.61 1992.8 1116.77 2002.6C1142.91 2062.41 1169.13 2122.31 1196.88 2180.95ZM1236.56 2901.42C1263 2850.06 1259.77 2791.04 1233.71 2740.94C1205.18 2700.45 1143.22 2700.55 1108.01 2726.76C1065.49 2758.61 1064.02 2873.95 1098.32 2917.92C1134.53 2964.43 1207.26 2957.73 1236.56 2901.42ZM1285.76 2256.48C1285.68 2247.06 1285.68 2237.84 1285.53 2228.42C1253.93 2224.44 1222.48 2222.69 1190.88 2222.41C1188.43 2223.08 1185.97 2223.08 1183.5 2222.41C1133.22 2222.21 1082.86 2224.73 1032.43 2225.41C1008.21 2289.49 992.678 2358.32 982.61 2428.22C988.064 2428.22 993.448 2428.32 998.91 2428.32C998.91 2427.93 998.91 2427.64 998.988 2427.25C1010.75 2373.66 1019.67 2319.49 1028.2 2265.02C1028.82 2260.66 1030.35 2257.46 1032.27 2254.93C1034.89 2249.98 1039.35 2246.38 1045.81 2246.38C1121.46 2246.38 1205.72 2247.06 1285.76 2256.48ZM1286.83 2321.14C1286.75 2313.38 1286.68 2305.6 1286.53 2297.94C1218.56 2290.07 1096.55 2288.23 1057.96 2287.84C1050.49 2335.22 1042.5 2382.21 1032.58 2428.9C1071.94 2429.49 1111.31 2430.17 1150.52 2430.27C1163.21 2398.22 1178.51 2368.03 1191.12 2336C1194.04 2328.52 1198.73 2325.41 1203.64 2325.41C1205.88 2323.76 1208.49 2322.49 1211.64 2322.31C1236.71 2320.46 1261.85 2320.94 1286.83 2321.14ZM1282.91 2562.78C1288.3 2496.18 1288.53 2429.3 1287.52 2362.5C1263.93 2362.4 1240.24 2361.92 1216.64 2363.47C1203.18 2396.48 1187.2 2427.84 1174.82 2461.62C1171.2 2471.13 1164.74 2473.46 1158.6 2471.53C1158.06 2471.71 1157.51 2471.81 1156.98 2471.81C1109.85 2471.71 1062.73 2470.56 1015.67 2470.06C1015.21 2502.5 1012.74 2534.83 1012.98 2567.26C1092.01 2565.89 1171.13 2564.63 1250.24 2563.36C1252.39 2434.43 1256.47 2393.85 1260.85 2393.85C1265.08 2393.85 1268.07 2434.43 1266.54 2563.08C1271.99 2562.98 1277.46 2562.98 1282.91 2562.78ZM1432.68 2253.47C1355.64 2144.64 1287.6 2022.9 1216.26 1908.43C1133.46 1775.71 1050.81 1642.61 968.154 1509.69C962.925 1520.28 951.776 1525.62 944.011 1513.19C938.48 1504.36 933.407 1495.23 929.174 1485.91C926.335 1488.82 923.331 1491.25 920.18 1493.48C962.233 1584.07 998.91 1678.33 1039.89 1769.69C1046.04 1766.1 1052.03 1762.02 1057.42 1756.59C1063.72 1745.52 1078.18 1741.73 1084.63 1757.26C1117.3 1836.58 1161.43 1907.36 1193.26 1987.17C1220.64 2055.8 1249.01 2121.73 1285.45 2183.57C1286.22 2184.83 1286.75 2186.1 1287.14 2187.36C1291.45 2187.84 1295.68 2188.13 1299.98 2188.81C1306.67 2189.78 1311.13 2194.83 1313.51 2201.04C1316.28 2204.34 1318.13 2209 1318.2 2215.32C1318.44 2261.92 1319.59 2308.42 1320.2 2354.92C1359.1 2323.76 1395.63 2287.94 1432.68 2253.47ZM1495.04 2413.18C1438.29 2413.18 1352.57 2413.18 1320.74 2413.18C1320.74 2462.88 1319.67 2512.69 1315.74 2562.4C1321.59 2562.2 1327.51 2562.2 1333.43 2562.11C1332.74 2527.25 1331.66 2494.73 1334.19 2468.23C1334.66 2463.18 1335.04 2458.7 1335.42 2453.85L1335.81 2448.91C1335.97 2447.35 1335.65 2445.12 1337.5 2445.79C1339.96 2445.61 1342.5 2445.51 1345.04 2445.31C1351.11 2445.12 1356.8 2444.83 1362.26 2444.63C1371.72 2444.92 1380.02 2445.31 1387.01 2445.99C1415.23 2449.19 1425.61 2451.52 1425.68 2454.64C1425.68 2457.35 1414.69 2460.07 1386.78 2460.65C1379.79 2461.04 1371.79 2461.33 1362.49 2461.82C1358.65 2462.2 1354.49 2462.6 1350.03 2463.18C1349.57 2463.18 1349.5 2463.27 1349.57 2463.66C1349.57 2464.25 1349.57 2463.57 1349.57 2464.93C1349.5 2466.77 1349.42 2468.23 1349.26 2470.06C1347.5 2494.92 1349.04 2526.86 1349.8 2561.81C1397.7 2561.33 1445.6 2560.75 1493.5 2560.16C1492.03 2511.04 1489.34 2461.92 1495.04 2413.18ZM1505.26 2695.21C1500.49 2685.4 1495.88 2675.5 1491.73 2665.21C1491.5 2664.53 1491.42 2664.04 1491.19 2663.46C1344.57 2656.18 1198.19 2664.14 1051.58 2662.88C1051.88 2689.96 1052.49 2716.86 1052.81 2743.95C1060.8 2721.43 1073.25 2702.49 1091.47 2691.03C1141.45 2659.96 1219.1 2654.05 1258.31 2713.46C1258.62 2713.95 1258.85 2714.53 1259.24 2715.11C1259.77 2715.88 1260.31 2716.76 1260.85 2717.73C1271.69 2737.83 1279.53 2761.42 1283.91 2786.18C1284.69 2785.99 1285.45 2785.89 1286.3 2785.89C1296.29 2785.89 1297.21 2785.89 1305.67 2785.89C1310.36 2745.21 1325.12 2709 1353.88 2691.03C1397.93 2663.56 1463.43 2655.89 1505.26 2695.21ZM1498.96 2901.42C1525.4 2850.06 1522.1 2791.04 1496.11 2740.94C1467.59 2700.45 1405.62 2700.55 1370.41 2726.76C1327.81 2758.61 1326.43 2873.95 1360.65 2917.92C1396.93 2964.43 1469.66 2957.73 1498.96 2901.42ZM1532.63 2672.59C1531.86 2648.8 1530.63 2625.11 1529.25 2601.33C1372.02 2602.39 1214.79 2605.31 1057.5 2607.84C1057.42 2610.45 1057.26 2612.98 1057.42 2615.4C1057.5 2617.45 1057.64 2619.38 1057.72 2621.52C1206.26 2622.59 1354.65 2614.34 1503.1 2622.59C1512.95 2623.18 1518.1 2632.39 1518.87 2641.91C1519.25 2642.79 1519.72 2643.47 1520.02 2644.24C1523.86 2653.95 1528.1 2663.27 1532.63 2672.59ZM1537.86 2172.31C1539.09 2170.85 1540.4 2169.69 1541.93 2168.72C1464.36 2050.95 1391.39 1927.65 1316.52 1807.36C1099.39 1459.02 882.663 1109.99 667.542 759.515C628.484 695.832 589.504 632.237 550.524 568.554C522.927 591.458 496.56 616.504 471.88 644.175C668 960.195 864.129 1276.2 1060.57 1592.03C1152.6 1739.79 1244.55 1887.65 1336.96 2035.23C1377.25 2099.69 1415.85 2168.04 1459.36 2229.29C1480.58 2210.55 1502.11 2192.6 1524.94 2176.67C1526.48 2175.6 1528.1 2175.02 1529.63 2174.54C1532.16 2172.79 1535.01 2172.02 1537.86 2172.31ZM1563 2464.53C1562.23 2462.2 1561.69 2459.68 1561.61 2456.77C1559.93 2412.31 1555.47 2368.32 1556.15 2323.86C1556.15 2318.42 1557.77 2313.76 1560.38 2310.17C1561.99 2302.7 1566.53 2298.13 1571.76 2296.47C1560.92 2268.9 1547.39 2243.37 1531.86 2219.68C1470.97 2263.96 1417.46 2321.82 1359.56 2371.72C1371.72 2371.72 1383.63 2371.72 1395.31 2371.72C1406.16 2362.5 1416.77 2353.66 1426.37 2345.41C1441.14 2331.62 1454.36 2319.19 1466.28 2308.03C1469.2 2305.12 1472.28 2302.6 1474.97 2299.69C1477.51 2296.77 1479.89 2293.86 1482.19 2291.04C1487.27 2285.31 1491.42 2279.3 1496.65 2274.35C1499.26 2271.82 1501.26 2269.49 1504.19 2266.97C1508.33 2263.96 1512.41 2261.14 1516.33 2258.42C1518.18 2257.06 1520.02 2255.8 1521.86 2254.54C1523.09 2252.98 1522.87 2255.51 1523.17 2256.48L1523.78 2260.07C1524.56 2264.92 1525.33 2269.59 1526.02 2274.05C1527.94 2283.86 1527.78 2287.84 1528.1 2292.99C1528.48 2297.94 1528.94 2302.5 1528.79 2306.48C1528.79 2314.63 1528.94 2321.14 1528.55 2326.19C1527.94 2336.28 1527.01 2340.75 1525.94 2340.75C1524.71 2340.75 1523.56 2336.58 1522.1 2326.67C1521.48 2321.62 1520.71 2315.41 1519.64 2307.55C1519.25 2303.57 1518.49 2299.39 1517.86 2294.74C1517.1 2290.46 1516.33 2283.86 1515.8 2282.69C1515.48 2281.63 1515.1 2280.56 1514.87 2279.3C1514.71 2279 1514.71 2277.75 1514.33 2278.13L1513.26 2279.1C1512.64 2279.68 1511.95 2280.26 1511.26 2280.75C1509.41 2282.98 1507.56 2285.12 1505.49 2287.46C1501.26 2291.72 1497.26 2298.04 1492.5 2303.95C1489.96 2307.16 1487.42 2310.36 1484.8 2313.66C1482.12 2316.68 1479.12 2319.49 1476.12 2322.49C1463.97 2334.35 1450.52 2347.64 1435.52 2362.11C1432.07 2365.12 1428.07 2368.62 1424.37 2371.72C1455.51 2371.72 1485.73 2371.72 1515.87 2371.72C1531.32 2371.72 1535.78 2392.3 1529.4 2404.43C1521.79 2451.14 1524.02 2499.1 1525.86 2546.37C1539.25 2519.87 1550.08 2491.43 1563 2464.53ZM1617.35 2617.05C1617.13 2611.92 1617.05 2606.57 1617.05 2600.94C1603.67 2600.94 1590.45 2601.04 1577.14 2601.04C1577.68 2603.46 1577.99 2605.89 1577.91 2608.8C1576.99 2625.89 1576.53 2643.17 1576.45 2660.36C1589.68 2660.16 1602.9 2659.48 1616.12 2659.29C1616.36 2659.29 1616.43 2659.48 1616.66 2659.48C1616.82 2646.37 1616.82 2633.36 1617.05 2620.26C1617.05 2619.2 1617.2 2618.03 1617.35 2617.05ZM1617.35 2723.76C1617.13 2716.08 1617.05 2708.32 1616.89 2700.74C1616.66 2700.74 1616.36 2700.74 1616.12 2700.74C1602.9 2700.84 1589.68 2701.52 1576.45 2701.81C1576.68 2710.55 1576.76 2719.1 1576.99 2727.83C1590.45 2725.89 1603.82 2724.04 1617.35 2723.76ZM1619.51 2792.69C1619.2 2783.46 1618.89 2774.33 1618.5 2765.11C1618.36 2765.11 1618.12 2765.21 1617.89 2765.21C1604.51 2765.31 1591.29 2767.15 1578.07 2769.09C1578.29 2776.67 1578.53 2784.24 1578.76 2791.81C1592.45 2792.01 1605.98 2792.39 1619.51 2792.69ZM1622.74 2848.8C1622.36 2843.85 1622.12 2839.1 1621.81 2834.05C1607.82 2833.95 1593.98 2833.55 1579.91 2833.27C1580.07 2840.06 1580.15 2846.66 1580.29 2853.46C1594.37 2852.69 1608.59 2850.26 1622.74 2848.8ZM1679.78 2798.02C1679.25 2733.46 1677.32 2669.09 1685.78 2605.51C1673.71 2605.69 1661.87 2606.77 1649.95 2609.19C1650.03 2615.99 1650.26 2622.5 1650.72 2628.81C1650.88 2631.71 1650.57 2634.34 1649.72 2636.77C1649.03 2690.84 1650.03 2744.73 1652.64 2798.61C1661.64 2798.7 1670.79 2799 1679.78 2798.02ZM1738.59 2634.04C1730.68 2634.04 1722.3 2634.04 1715.53 2634.04C1710.23 2634.04 1712.69 2895.98 1712.69 2920.84C1718.61 2920.94 1724.45 2920.94 1730.37 2920.64C1733.91 2890.16 1735.3 2859.39 1735.37 2828.41C1735.37 2824.34 1736.37 2820.84 1737.68 2817.93C1736.06 2756.47 1731.06 2695.11 1738.59 2634.04ZM1756.28 2301.24C1756.05 2271.82 1755.74 2242.5 1757.36 2213.28C1694.08 2201.54 1630.27 2206.48 1566.53 2208.04C1583.99 2237.45 1598.52 2269 1609.9 2303.27C1615.66 2303.57 1621.51 2303.95 1627.27 2304.35C1619.97 2290.07 1614.28 2276 1609.59 2262.79C1607.98 2258.33 1606.28 2253.86 1604.75 2249.49C1601.82 2241.33 1599.05 2233.47 1596.37 2225.81C1594.59 2223.08 1597.36 2223.38 1598.98 2222.99L1604.13 2222.11C1607.51 2221.43 1610.89 2220.75 1614.12 2220.18C1616.36 2219.78 1618.5 2219.4 1620.58 2218.91C1622.36 2218.91 1624.12 2218.81 1625.73 2218.61C1652.72 2217.45 1672.87 2221.73 1688.16 2224.06C1718.61 2229.69 1729.91 2231.82 1729.91 2234.83C1730.07 2237.55 1717.99 2240.65 1687.09 2238.72C1671.78 2238.13 1651.57 2235.51 1626.89 2237.84C1625.35 2238.04 1623.81 2238.13 1622.12 2238.23L1619.81 2238.72L1618.66 2238.9C1618.66 2239.1 1618.43 2239.1 1618.43 2239.2L1618.5 2239.49L1618.66 2239.68L1619.2 2241.05C1620.82 2245.32 1622.5 2249.68 1624.12 2254.25C1630.42 2271.24 1638.11 2288.91 1648.03 2305.9C1684.47 2308.52 1720.61 2310.56 1756.28 2301.24ZM1761.43 2413.56C1760.74 2389.87 1759.35 2366.09 1759.9 2342.5C1704.7 2355.89 1648.49 2344.44 1592.45 2344.15C1592.45 2344.44 1592.45 2344.73 1592.45 2344.93C1592.83 2346.48 1593.14 2348.13 1593.29 2349.98C1595.29 2371.53 1594.67 2393.27 1596.59 2414.92C1651.42 2421.34 1706.46 2415.12 1761.43 2413.56ZM1794.65 2431.53C1794.8 2440.46 1791.18 2446.28 1786.34 2449.39C1783.73 2452.4 1780.12 2454.64 1775.51 2454.64C1726.53 2455.12 1677.55 2460.65 1628.74 2458.9C1626.2 2463.57 1621.97 2467.06 1616.12 2467.25C1610.36 2466.86 1604.75 2467.73 1599.21 2469.2C1583.38 2497.25 1572.07 2529.1 1558.08 2558.71C1558.92 2558.9 1559.85 2559.38 1560.69 2559.78C1595.9 2559.48 1631.04 2559.38 1666.17 2559.2C1670.94 2559.2 1674.55 2561.43 1677.17 2564.63C1685.78 2564.05 1694.16 2563.95 1701.69 2563.95C1705.54 2563.95 1708.62 2565.11 1711.15 2567.26C1717.99 2570.84 1723.3 2579.49 1721.22 2591.23C1721.07 2591.62 1721.07 2592.2 1721 2592.59C1733.76 2592.59 1745.06 2592.59 1756.44 2592.59C1766.28 2592.59 1771.51 2601.71 1772.12 2611.23C1773.43 2615.12 1773.96 2619.58 1773.12 2624.63C1760.66 2695.51 1770.28 2768.22 1770.97 2840.06C1771.04 2845.11 1769.74 2849.38 1767.74 2852.59C1767.2 2874.53 1765.66 2896.37 1763.51 2918.12C1781.89 2918.7 1780.8 2956.67 1760.97 2959.57C1726.45 2964.72 1691.78 2961.13 1657.1 2960.84C1635.96 2960.55 1635.96 2919.09 1657.1 2919.39C1664.71 2919.39 1672.33 2919.67 1679.86 2919.97C1679.86 2894.92 1679.86 2862 1679.86 2839.28C1671.56 2839.87 1663.33 2840.06 1654.95 2840.06C1655.41 2846.96 1655.72 2853.84 1656.18 2860.74C1656.79 2869.18 1653.72 2874.91 1649.34 2878.03C1647.1 2884.34 1642.34 2889.29 1635.27 2889.39C1605.51 2890.16 1576.68 2897.63 1547.08 2892.2C1545.01 2891.81 1543.31 2890.94 1541.78 2889.97C1535.01 2912.59 1524.1 2933.46 1508.03 2949.77C1458.13 3000.55 1368.87 3010.94 1329.51 2934.63C1315.28 2906.96 1305.9 2867.25 1304.36 2827.34C1296.99 2827.34 1290.45 2827.34 1287.76 2827.34C1288.14 2873.56 1275.61 2919.29 1245.63 2949.77C1195.81 3000.55 1106.47 3010.94 1067.11 2934.63C1062.87 2926.17 1058.95 2916.76 1055.64 2906.47C1053.03 2908.8 1049.8 2910.16 1045.81 2910.16C1002.06 2910.16 925.564 2910.16 925.564 2910.16C920.414 2910.16 916.492 2907.83 913.722 2904.23C906.953 2921.32 897.578 2936.95 884.888 2949.77C834.992 3000.55 745.735 3010.94 706.366 2934.63C695.45 2913.26 687.304 2885.01 683.539 2854.92C676.536 2854.92 674.614 2854.92 674.233 2854.92C670.312 2891.22 657.396 2925.3 633.409 2949.77C583.591 3000.55 494.248 3010.94 454.887 2934.63C444.889 2915.01 437.202 2889.29 433.047 2861.81C427.135 2861.81 421.214 2861.72 415.371 2860.74C414.981 2860.64 414.756 2860.64 414.444 2860.45C413.83 2878.51 412.904 2896.67 411.752 2914.72C411.752 2915.41 411.527 2916.08 411.371 2916.76C413.908 2928.7 408.913 2943.46 396.223 2943.56C379.152 2943.66 362.237 2945.79 345.254 2947.06C326.261 2948.41 324.495 2915.01 339.558 2907.25C339.558 2901.32 339.488 2895.5 339.333 2889.57C329.871 2887.83 320.184 2888.22 310.576 2888.32C304.733 2888.32 300.578 2885.21 297.894 2880.64C263.061 2890.45 225.777 2877.73 190.329 2880.16C179.725 2881.03 174.497 2870.93 174.497 2860.74C174.185 2858.9 173.951 2856.96 173.951 2854.92C173.951 2843.17 174.029 2827.05 175.189 2811.91C167.805 2811.61 160.421 2811.33 152.968 2811.13C151.739 2811.13 150.579 2811.03 149.427 2810.75C147.047 2810.75 144.511 2810.06 142.052 2808.41C117.451 2792.79 93.3078 2775.98 67.6241 2763.27C67.2432 2763.17 67.1653 2762.97 66.7844 2762.88C57.6346 2765.21 46.7101 2758.71 46.4071 2743.37C45.7146 2705.31 47.3334 2667.44 50.0169 2629.68C49.5581 2625.89 49.8697 2621.91 51.4019 2617.93C75.7006 2549.87 103.99 2484.24 124.826 2414.44C123.908 2408.51 124.67 2402.01 128.669 2396.19C141.896 2376.86 153.193 2355.31 166.957 2336.38C168.42 2334.35 170.038 2332.98 171.649 2331.92C174.185 2329.2 177.336 2327.26 181.257 2326.87C242.839 2319.59 304.352 2319.98 366.159 2319.98C374.079 2319.98 379.152 2325.89 381.152 2333.27C382.078 2334.73 382.848 2336.38 383.541 2338.23C462.263 2329.49 540.534 2345.8 619.412 2345.21C625.869 2345.21 630.405 2349.1 632.873 2354.54C635.175 2356.87 636.941 2360.17 638.023 2364.54C643.788 2389.69 651.778 2413.86 658.47 2438.71C658.703 2439.29 658.703 2439.78 658.781 2440.46C724.899 2439.98 791.095 2438.61 857.213 2438.42C857.75 2438.42 858.217 2438.61 858.676 2438.71C859.057 2438.61 859.516 2438.42 859.983 2438.42C869.67 2438.42 875.279 2447.94 876.361 2459.1C877.971 2476.57 877.201 2493.66 875.513 2510.94C875.513 2511.24 875.357 2511.33 875.357 2511.43C875.357 2511.72 875.513 2511.91 875.513 2512.11C876.049 2531.91 883.658 2549.39 885.199 2569.19C916.873 2568.61 948.625 2568.22 980.23 2567.74C979.996 2537.84 981.918 2508.03 982.61 2478.22C982.151 2478.03 981.762 2477.94 981.303 2477.74C979.303 2477.06 977.46 2476.57 975.538 2475.99C975.079 2475.99 972.231 2475.41 971.539 2475.31C971.694 2475.31 971.772 2475.31 971.997 2475.31C964.925 2474.34 958.779 2469.39 956.468 2461.23C950.78 2456.97 946.625 2449.09 947.932 2438.71C958.779 2355.02 977.148 2272.89 1006.98 2196.87C1008.67 2192.89 1010.75 2190.26 1013.13 2188.61C1015.67 2185.9 1018.9 2184.25 1023.05 2184.25C1068.33 2183.86 1113.54 2181.53 1158.75 2180.95C1105.08 2065.61 1056.95 1946.01 1001.52 1831.73C998.832 1826 998.451 1820.56 999.75 1815.71C997.828 1807.36 999.135 1797.65 1006.14 1791.24C1007.45 1790.18 1008.83 1789.01 1010.36 1787.94C968.31 1693.96 930.793 1596.88 887.199 1504.06C886.428 1504.06 885.736 1503.88 884.965 1503.88C879.971 1507.86 873.201 1508.82 868.051 1504.36C853.603 1491.93 840.913 1476.69 832.075 1457.37C829.685 1451.94 829.305 1446.69 830.456 1442.13C829.919 1439.21 829.919 1436.01 830.456 1432.71C835.996 1401.93 850.219 1375.04 867.514 1352.81C868.051 1352.03 868.665 1351.44 869.358 1350.86C728.898 1124.95 588.352 898.732 448.118 672.523C444.889 676.601 441.582 680.778 438.431 684.954C423.75 704.272 400.603 674.951 415.137 655.633C419.292 650.297 423.516 645.05 427.672 639.616C350.482 515.148 273.215 390.788 195.947 266.123C180.418 267.49 169.727 238.649 186.183 227.87C190.719 224.962 195.021 221.955 199.557 218.752C196.484 211.274 193.411 203.796 190.563 196.22C164.42 217.68 132.747 234.189 104.224 237.392C107.452 294.57 104.457 353.792 104.527 410.784C104.682 534.181 104.457 657.579 104.224 781.074C104.068 903.301 103.834 1025.63 104.068 1147.95C104.068 1199.22 101.453 1252.33 103.99 1304.07C135.594 1303.97 166.186 1313.88 182.798 1337.27C185.179 1340.67 186.564 1344.36 186.945 1348.14C190.104 1352.51 192.026 1358.72 191.1 1366.1C184.642 1417.66 182.339 1469.89 174.722 1521.35C173.112 1532.81 165.961 1537.08 158.967 1536.21C158.119 1536.39 157.27 1536.59 156.119 1536.59C144.969 1536.59 133.742 1536.98 122.445 1536.78C118.524 1550.67 112.066 1562.51 102.458 1572.61C91.7669 1583.67 75.2418 1593.96 67.9357 1609.31C61.478 1622.7 64.7848 1652.12 80.8511 1652.12C98.0688 1651.93 104.838 1634.06 100.683 1614.55C95.3766 1588.73 126.981 1577.66 132.435 1603.48C139.438 1636.79 130.669 1670.86 105.453 1686.78C83.0758 1700.67 53.0207 1692.12 40.564 1663.68C27.4928 1633.87 28.6441 1598.82 48.5626 1574.36C55.2454 1566.2 66.3949 1557.95 75.9256 1548.44C74.7743 1546.49 73.9346 1544.46 73.3893 1542.12C73.3893 1541.93 73.3893 1541.84 73.3893 1541.64C60.0151 1542.99 46.7101 1544.84 33.4917 1547.85C24.6448 1549.99 15.9624 1544.94 13.2703 1533.38C-0.181829 1474.74 4.19833 1413.97 4.50131 1353.68C4.50131 1345.23 7.88598 1339.41 12.344 1336.2C14.6553 1330.57 19.1134 1326.3 25.8048 1326.01C42.5637 1314.85 64.629 1307.37 87.6118 1304.95C84.7725 1249.31 87.6897 1192.03 87.6118 1136.89C87.4647 1013.49 87.6897 890.095 87.9234 766.698C88.0014 644.372 88.2351 522.046 88.0014 399.72C88.0014 346.314 90.8407 290.787 87.7676 237.097C52.8649 230.493 43.412 183.221 61.8589 141.95C87.9234 83.9956 146.277 31.8576 195.947 12.3428C218.082 3.50918 242.917 6.81086 260.758 19.624C264.827 20.4002 268.601 23.3192 271.137 29.3322C283.741 44.0913 289.203 65.6396 280.746 92.7308C288.199 102.537 294.665 113.317 300.967 124.184C307.728 110.015 327.413 107.774 330.486 128.164C333.87 150.98 375.62 209.82 391.531 236.714C441.124 320.786 491.634 404.181 542.3 487.39C547.529 496.026 552.835 504.762 558.219 513.497C558.522 513.213 558.912 512.917 559.215 512.622C576.51 499.525 592.118 531.175 578.207 546.218C780.56 878.058 985.146 1207.95 1189.89 1537.56C1319.97 1746.78 1446.06 1962.31 1582.14 2165.51C1582.37 2165.81 1582.37 2166.09 1582.61 2166.39C1648.26 2164.54 1713.77 2161.04 1779.04 2175.7C1786.88 2177.55 1790.5 2184.45 1790.8 2192.01C1791.04 2193.76 1791.18 2195.89 1791.04 2198.14C1787.95 2233.86 1788.88 2269.59 1789.11 2305.5C1792.34 2308.81 1794.34 2313.96 1793.8 2321.14C1790.65 2357.94 1794.34 2394.73 1794.65 2431.53ZM246.994 84.8702C246.683 84.8702 248.535 80.6939 248.379 81.2733C249.375 76.2224 249.072 80.3987 248.916 74.7684C248.604 67.684 246.302 58.8504 243.151 50.8914C243.073 50.5962 242.917 50.2027 242.839 49.9184C235.074 45.3485 224.314 45.4469 218.549 47.2946C215.857 48.0708 213.165 49.2406 210.473 50.2027C210.014 51.5692 209.399 52.9249 208.629 54.2805C207.088 57.1012 203.937 64.0872 203.79 64.5791C203.322 66.23 202.942 67.8808 202.63 69.5316C202.483 70.4937 202.405 72.2429 202.405 72.5381C202.405 74.3857 203.322 78.3652 204.552 79.8193C208.248 84.8702 208.707 85.548 214.628 88.6529C214.628 88.6529 214.706 88.6529 214.706 88.8497C214.853 88.8497 214.931 88.9481 215.165 88.9481L215.087 88.8497C216.16 89.2323 220.237 90.7848 221.388 91.0799C222.471 91.4735 223.7 91.7578 224.773 91.8562C225.007 91.8562 225.466 92.0529 226.08 92.0529C228.928 92.2497 231.698 92.2497 234.382 92.0529C235.152 91.7578 238.771 90.8831 239.532 90.5989C242.917 89.2323 244.38 88.8497 246.994 84.8702Z" fill="#EEEEEE"/>
</g>
<path d="M998.599 1398.53C1252.24 1810.28 1454.52 2147.25 1450.52 2151.15C1446.44 2155.13 1237.63 1824.54 984.073 1412.91C730.509 1001.16 528.155 664.182 532.233 660.202C536.223 656.31 745.043 986.893 998.599 1398.53Z" fill="#EEEEEE"/>
<path d="M215.163 88.9486C214.93 88.9486 214.852 88.8499 214.706 88.8499C214.852 88.8499 214.93 88.8499 215.086 88.8499L215.163 88.9486Z" fill="#EEEEEE"/>
<path d="M215.086 88.8499C214.93 88.8499 214.853 88.8499 214.706 88.8499V88.6531C214.706 88.6531 214.853 88.6531 215.086 88.8499Z" fill="#EEEEEE"/>
<path d="M214.702 88.6531V88.8499C214.702 88.6531 214.628 88.6531 214.628 88.6531C214.628 88.6531 214.628 88.6531 214.702 88.6531Z" fill="#EEEEEE"/>
</g>
<defs>
<clipPath id="clip0_45_2">
<rect width="1795" height="2267" fill="white"/>
</clipPath>
</defs>
</svg>
