<svg width="35" height="35" viewBox="0 0 35 35" fill="none" xmlns="http://www.w3.org/2000/svg">
<path d="M26.1133 0H8.88672C8.56038 0 8.2474 0.129638 8.01665 0.360396C7.78589 0.591154 7.65625 0.904128 7.65625 1.23047V33.7695C7.65625 34.0959 7.78589 34.4088 8.01665 34.6396C8.2474 34.8704 8.56038 35 8.88672 35H26.1133C26.4396 35 26.7526 34.8704 26.9834 34.6396C27.2141 34.4088 27.3438 34.0959 27.3438 33.7695V1.23047C27.3438 0.904128 27.2141 0.591154 26.9834 0.360396C26.7526 0.129638 26.4396 0 26.1133 0ZM10.1172 30.625V4.375H24.8828V30.625H10.1172Z" fill="white"/>
</svg>
