<svg xmlns="http://www.w3.org/2000/svg" xmlns:xlink="http://www.w3.org/1999/xlink" width="200px" zoomAndPan="magnify" viewBox="0 0 342.75 155.999997" height="91px" preserveAspectRatio="xMidYMid meet" version="1.0"><defs><g/></defs><path fill="#ff3131" d="M 203.097656 117.65625 C 203.097656 125.164062 200.550781 131.617188 195.46875 137.015625 C 190.273438 142.550781 183.953125 145.320312 176.5 145.320312 C 169.191406 145.320312 162.953125 142.867188 157.789062 137.960938 C 152.515625 132.949219 149.878906 126.8125 149.878906 119.546875 C 149.878906 111.917969 152.53125 105.445312 157.84375 100.136719 C 163.152344 94.824219 169.621094 92.167969 177.257812 92.167969 C 184.257812 92.167969 190.316406 94.667969 195.429688 99.664062 C 200.539062 104.65625 203.097656 110.65625 203.097656 117.65625 Z M 195.777344 120.304688 C 195.777344 113.769531 194.125 108.132812 190.824219 103.386719 C 187.152344 98.117188 182.285156 95.476562 176.230469 95.476562 C 170.171875 95.476562 165.4375 97.878906 162.027344 102.671875 C 159.066406 106.894531 157.585938 112.035156 157.585938 118.089844 C 157.585938 121.734375 158.242188 125.292969 159.558594 128.753906 C 160.96875 132.527344 162.921875 135.542969 165.417969 137.800781 C 168.457031 140.554688 172.078125 141.929688 176.273438 141.929688 C 182.273438 141.929688 187.085938 139.792969 190.703125 135.519531 C 194.085938 131.503906 195.777344 126.433594 195.777344 120.304688 Z M 195.777344 120.304688 " fill-opacity="1" fill-rule="nonzero"/><path fill="#ff3131" d="M 228.019531 115.808594 C 228.019531 118.25 227.601562 119.46875 226.765625 119.46875 C 226.351562 119.46875 225.3125 118.71875 223.660156 117.210938 C 222.003906 115.699219 220.5625 114.945312 219.339844 114.945312 C 218.023438 114.945312 216.910156 115.472656 215.992188 116.523438 C 215.074219 117.570312 214.617188 118.761719 214.617188 120.101562 C 214.617188 121.230469 215.59375 122.679688 217.558594 124.460938 C 221.175781 127.695312 223.027344 129.34375 223.105469 129.417969 C 225.078125 131.542969 226.0625 133.585938 226.0625 135.558594 C 226.0625 138 225.078125 140.007812 223.105469 141.578125 C 221.296875 143.019531 219.132812 143.738281 216.613281 143.738281 C 214.542969 143.738281 212.566406 143.320312 210.6875 142.484375 C 208.316406 141.40625 207.136719 139.960938 207.136719 138.152344 C 207.136719 135.371094 207.582031 133.980469 208.472656 133.980469 C 208.5 133.980469 208.582031 133.992188 208.714844 134.019531 C 211.621094 136.703125 214.121094 138.042969 216.222656 138.042969 C 218.6875 138.042969 219.921875 136.957031 219.921875 134.777344 C 219.921875 133.886719 219.199219 132.71875 217.761719 131.265625 C 215.5 129.046875 214.136719 127.632812 213.671875 127.027344 C 212.230469 125.109375 211.511719 123.117188 211.511719 121.046875 C 211.511719 118.15625 212.308594 115.640625 213.898438 113.488281 C 215.660156 111.078125 217.9375 109.867188 220.71875 109.867188 C 221.734375 109.867188 222.988281 110.171875 224.484375 110.773438 C 226.136719 111.457031 227.171875 112.195312 227.589844 112.988281 C 227.875 113.535156 228.019531 114.480469 228.019531 115.808594 Z M 228.019531 115.808594 " fill-opacity="1" fill-rule="nonzero"/><path fill="#ff3131" d="M 265.070312 113.730469 C 265.070312 115.304688 264.414062 117.480469 263.113281 120.261719 C 262.085938 122.390625 261.058594 124.511719 260.035156 126.636719 C 259.457031 128.078125 258.945312 129.453125 258.507812 130.765625 C 257.769531 132.9375 257.402344 134.585938 257.402344 135.722656 C 257.402344 137.269531 257.753906 138.042969 258.46875 138.042969 C 259.09375 138.042969 259.96875 137.5 261.085938 136.410156 C 262.199219 135.324219 263.046875 134.777344 263.625 134.777344 C 264.40625 134.777344 264.800781 135.09375 264.800781 135.722656 C 264.800781 137.285156 263.464844 139.015625 260.789062 140.90625 C 258.269531 142.6875 256.171875 143.578125 254.5 143.578125 C 253.074219 143.578125 252.367188 142.871094 252.367188 141.457031 C 252.367188 140.144531 252.785156 138.246094 253.621094 135.761719 C 254.464844 133.269531 254.890625 131.367188 254.890625 130.050781 C 254.890625 129.023438 254.613281 128.511719 254.066406 128.511719 C 253.246094 128.511719 251.816406 129.828125 249.773438 132.453125 C 246.835938 136.226562 244.796875 138.675781 243.644531 139.8125 C 240.960938 142.429688 238.46875 143.738281 236.164062 143.738281 C 235.039062 143.738281 234.132812 143.214844 233.453125 142.160156 C 232.875 141.269531 232.589844 140.222656 232.589844 139.015625 C 232.589844 136.21875 233.878906 132.394531 236.464844 127.539062 C 239.042969 122.691406 240.335938 119.265625 240.335938 117.265625 C 240.335938 116.035156 239.851562 115.417969 238.878906 115.417969 C 238.070312 115.417969 237.046875 115.9375 235.816406 116.96875 C 234.578125 118.003906 233.78125 118.523438 233.410156 118.523438 C 232.808594 118.523438 232.507812 118.261719 232.507812 117.738281 C 232.507812 116.066406 233.804688 114.308594 236.394531 112.472656 C 238.859375 110.738281 240.972656 109.867188 242.726562 109.867188 C 243.808594 109.867188 244.691406 110.28125 245.386719 111.097656 C 246.078125 111.90625 246.425781 112.851562 246.425781 113.933594 C 246.425781 116.46875 245.089844 120.082031 242.417969 124.757812 C 239.742188 129.441406 238.40625 133 238.40625 135.4375 C 238.40625 136.933594 238.761719 137.679688 239.472656 137.679688 C 241.570312 137.679688 244.648438 134.808594 248.707031 129.066406 C 251.597656 125.035156 254.019531 121.101562 255.984375 117.265625 C 256.460938 116.222656 257.234375 114.675781 258.304688 112.621094 C 259.386719 110.785156 260.589844 109.867188 261.925781 109.867188 C 262.894531 109.867188 263.683594 110.28125 264.285156 111.097656 C 264.804688 111.851562 265.070312 112.730469 265.070312 113.730469 Z M 265.070312 113.730469 " fill-opacity="1" fill-rule="nonzero"/><path fill="#ff3131" d="M 300.9375 135.558594 C 300.9375 137.234375 299.617188 138.988281 296.96875 140.824219 C 294.476562 142.5625 292.351562 143.429688 290.597656 143.429688 C 287.925781 143.429688 286.585938 142.199219 286.585938 139.730469 C 286.585938 137.320312 287.980469 133.683594 290.773438 128.824219 C 293.558594 123.957031 294.957031 120.363281 294.957031 118.050781 C 294.957031 116.664062 294.59375 115.96875 293.863281 115.96875 C 291.289062 115.96875 286.945312 120.964844 280.835938 130.957031 C 280.082031 132.109375 278.992188 133.890625 277.582031 136.300781 C 277.132812 137.355469 276.386719 138.917969 275.34375 140.984375 C 274.261719 142.820312 273.089844 143.738281 271.832031 143.738281 C 269.582031 143.738281 268.457031 142.46875 268.457031 139.917969 C 268.457031 138.300781 269.109375 136.125 270.414062 133.398438 C 272.332031 129.441406 273.34375 127.304688 273.453125 126.988281 L 274.464844 124.109375 C 275.382812 121.546875 275.839844 119.75 275.839844 118.722656 C 275.839844 116.601562 275.464844 115.539062 274.707031 115.539062 C 274.105469 115.539062 273.234375 116.09375 272.101562 117.199219 C 270.976562 118.300781 270.136719 118.847656 269.589844 118.847656 C 268.835938 118.847656 268.457031 118.53125 268.457031 117.902344 C 268.457031 116.328125 269.78125 114.566406 272.425781 112.621094 C 274.945312 110.785156 277.03125 109.867188 278.675781 109.867188 C 280.25 109.867188 281.039062 110.554688 281.039062 111.921875 C 281.039062 113.210938 280.65625 115.074219 279.890625 117.507812 C 279.136719 119.949219 278.757812 121.808594 278.757812 123.085938 C 278.757812 124.402344 279.085938 125.054688 279.742188 125.054688 C 280.527344 125.054688 281.917969 123.746094 283.914062 121.128906 C 286.765625 117.320312 288.734375 114.882812 289.8125 113.808594 C 292.378906 111.183594 294.75 109.867188 296.929688 109.867188 C 298.160156 109.867188 299.136719 110.335938 299.859375 111.273438 C 300.578125 112.199219 300.9375 113.292969 300.9375 114.554688 C 300.9375 116.964844 299.628906 120.855469 297.007812 126.230469 C 294.335938 131.710938 293 135.070312 293 136.300781 C 293 137.328125 293.492188 137.839844 294.484375 137.839844 C 295.300781 137.839844 296.320312 137.324219 297.535156 136.289062 C 298.757812 135.253906 299.566406 134.734375 299.953125 134.734375 C 300.609375 134.734375 300.9375 135.011719 300.9375 135.558594 Z M 300.9375 135.558594 " fill-opacity="1" fill-rule="nonzero"/><path fill="#ff3131" d="M 338.777344 132.292969 C 338.777344 134.003906 337.386719 136.308594 334.605469 139.203125 C 331.824219 142.09375 329.585938 143.539062 327.882812 143.539062 C 325.238281 143.539062 323.914062 142.101562 323.914062 139.21875 C 323.914062 138.617188 324.023438 137.726562 324.238281 136.542969 C 324.460938 135.367188 324.578125 134.476562 324.578125 133.871094 C 324.578125 133.164062 324.363281 132.804688 323.941406 132.804688 C 323.734375 132.804688 321.796875 134.628906 318.136719 138.273438 C 314.480469 141.917969 311.765625 143.738281 309.984375 143.738281 C 308.488281 143.738281 307.296875 143.152344 306.40625 141.972656 C 305.566406 140.890625 305.148438 139.59375 305.148438 138.070312 C 305.148438 133.246094 307.445312 127.792969 312.035156 121.707031 C 316.9375 115.183594 322.121094 111.378906 327.574219 110.300781 C 328.695312 110.121094 330.359375 109.8125 332.566406 109.367188 C 334.449219 108.082031 335.496094 107.4375 335.714844 107.4375 C 336.46875 107.4375 336.847656 107.898438 336.847656 108.816406 C 336.847656 109.285156 336.714844 109.863281 336.457031 110.542969 L 331.730469 122.613281 C 329.714844 127.78125 328.707031 131.546875 328.707031 133.910156 C 328.707031 135.984375 329.570312 137.015625 331.300781 137.015625 C 332.007812 137.015625 333.234375 136.082031 334.972656 134.207031 C 336.714844 132.328125 337.757812 131.386719 338.101562 131.386719 C 338.550781 131.386719 338.777344 131.691406 338.777344 132.292969 Z M 329.019531 117.035156 C 329.019531 116.066406 328.179688 115.578125 326.507812 115.578125 L 325.992188 115.578125 C 322.921875 115.578125 319.503906 117.847656 315.734375 122.382812 C 312.0625 126.8125 310.226562 130.601562 310.226562 133.75 C 310.226562 135.875 311 136.9375 312.546875 136.9375 C 315.292969 136.9375 318.75 134.300781 322.929688 129.023438 C 326.984375 123.914062 329.019531 119.917969 329.019531 117.035156 Z M 329.019531 117.035156 " fill-opacity="1" fill-rule="nonzero"/><path fill="#ffffff" d="M 131.058594 63.171875 C 128.375 63.171875 126.207031 63.171875 126.207031 63.171875 L 116.605469 63.171875 L 116.542969 69.265625 C 119.445312 70.917969 121.355469 74.0625 121.355469 77.726562 L 121.558594 111.386719 L 29.476562 111.386719 L 29.476562 77.726562 C 29.476562 74.144531 31.4375 71.050781 34.328125 69.367188 L 34.328125 63.171875 L 24.625 63.171875 C 24.625 63.171875 22.453125 63.171875 19.773438 63.171875 C 17.089844 63.171875 14.921875 60.996094 14.921875 58.320312 L 14.921875 53.46875 C 14.921875 50.785156 17.089844 48.617188 19.773438 48.617188 C 22.453125 48.617188 24.625 48.617188 24.625 48.617188 L 24.625 58.320312 L 34.328125 58.320312 L 34.328125 43.765625 C 34.328125 38.410156 38.675781 34.0625 44.03125 34.0625 L 107.101562 34.0625 C 112.457031 34.0625 116.804688 38.410156 116.804688 43.765625 L 116.65625 58.320312 L 126.207031 58.320312 L 126.207031 48.617188 C 126.207031 48.617188 128.375 48.617188 131.058594 48.617188 C 133.738281 48.617188 135.910156 50.785156 135.910156 53.46875 L 135.910156 58.320312 C 135.910156 60.996094 133.738281 63.171875 131.058594 63.171875 Z M 58.585938 106.835938 L 92.546875 106.835938 L 92.546875 101.984375 L 58.585938 101.984375 Z M 58.585938 97.132812 L 92.546875 97.132812 L 92.546875 92.28125 L 58.585938 92.28125 Z M 58.585938 87.429688 L 92.546875 87.429688 L 92.546875 82.578125 L 58.585938 82.578125 Z M 39.179688 101.984375 C 39.179688 104.660156 41.347656 106.835938 44.03125 106.835938 L 48.882812 106.835938 C 51.5625 106.835938 53.734375 104.660156 53.734375 101.984375 C 53.734375 99.300781 51.5625 97.132812 48.882812 97.132812 L 44.03125 97.132812 C 41.355469 97.132812 39.179688 99.300781 39.179688 101.984375 Z M 107.101562 48.617188 C 107.101562 45.933594 104.933594 43.765625 102.25 43.765625 L 48.882812 43.765625 C 46.199219 43.765625 44.03125 45.933594 44.03125 48.617188 L 44.03125 72.875 L 107.101562 72.875 Z M 107.101562 97.132812 L 102.25 97.132812 C 99.566406 97.132812 97.398438 99.300781 97.398438 101.984375 C 97.398438 104.660156 99.566406 106.835938 102.25 106.835938 L 107.101562 106.835938 C 109.78125 106.835938 111.953125 104.660156 111.953125 101.984375 C 111.953125 99.300781 109.78125 97.132812 107.101562 97.132812 Z M 111.953125 29.210938 L 39.179688 29.210938 C 33.824219 29.210938 29.476562 33.558594 29.476562 38.914062 L 29.476562 14.65625 C 29.476562 11.972656 31.644531 9.804688 34.328125 9.804688 L 116.804688 9.804688 C 119.484375 9.804688 121.65625 11.972656 121.65625 14.65625 L 121.65625 38.914062 C 121.65625 33.558594 117.316406 29.210938 111.953125 29.210938 Z M 121.65625 121.089844 C 121.65625 123.765625 119.484375 125.941406 116.804688 125.941406 L 34.328125 125.941406 C 31.644531 125.941406 29.476562 123.765625 29.476562 121.089844 C 29.476562 118.40625 29.476562 116.238281 29.476562 116.238281 L 121.65625 116.238281 C 121.65625 116.238281 121.65625 118.40625 121.65625 121.089844 Z M 53.734375 140.796875 C 53.734375 143.472656 51.5625 145.648438 48.882812 145.648438 L 44.03125 145.648438 C 41.347656 145.648438 39.179688 143.472656 39.179688 140.796875 L 39.179688 131.09375 L 53.734375 131.09375 Z M 111.953125 140.796875 C 111.953125 143.472656 109.78125 145.648438 107.101562 145.648438 L 102.25 145.648438 C 99.566406 145.648438 97.398438 143.472656 97.398438 140.796875 L 97.398438 131.09375 L 111.953125 131.09375 Z M 111.953125 140.796875 " fill-opacity="1" fill-rule="nonzero"/><g fill="#afafaf" fill-opacity="1"><g transform="translate(146.231867, 75.376243)"><g><path d="M 16.390625 0.609375 C 11.660156 0.609375 8.140625 -1.050781 5.828125 -4.375 C 3.515625 -7.707031 2.359375 -12.753906 2.359375 -19.515625 L 2.359375 -47.71875 C 2.359375 -53.757812 3.703125 -58.328125 6.390625 -61.421875 C 9.085938 -64.523438 13.101562 -66.078125 18.4375 -66.078125 C 22.757812 -66.078125 26.113281 -65.210938 28.5 -63.484375 C 30.894531 -61.765625 32.546875 -59.25 33.453125 -55.9375 C 34.367188 -52.632812 34.828125 -48.394531 34.828125 -43.21875 L 22.03125 -43.21875 L 22.03125 -49.078125 C 22.03125 -50.660156 21.8125 -51.882812 21.375 -52.75 C 20.945312 -53.613281 20.175781 -54.046875 19.0625 -54.046875 C 16.5625 -54.046875 15.3125 -52.414062 15.3125 -49.15625 L 15.3125 -17.453125 C 15.3125 -15.472656 15.566406 -13.972656 16.078125 -12.953125 C 16.585938 -11.941406 17.476562 -11.4375 18.75 -11.4375 C 20.019531 -11.4375 20.90625 -11.941406 21.40625 -12.953125 C 21.914062 -13.972656 22.171875 -15.472656 22.171875 -17.453125 L 22.171875 -26.828125 L 18.671875 -26.828125 L 18.671875 -38.109375 L 34.671875 -38.109375 L 34.671875 0 L 29.421875 0 L 27.203125 -5.484375 C 24.867188 -1.421875 21.265625 0.609375 16.390625 0.609375 Z M 16.390625 0.609375 "/></g></g></g><g fill="#afafaf" fill-opacity="1"><g transform="translate(183.199195, 75.376243)"><g><path d="M 2.890625 -65.46875 L 23.015625 -65.46875 C 26.210938 -65.46875 28.6875 -64.742188 30.4375 -63.296875 C 32.195312 -61.847656 33.378906 -59.816406 33.984375 -57.203125 C 34.597656 -54.585938 34.90625 -51.242188 34.90625 -47.171875 C 34.90625 -43.460938 34.421875 -40.566406 33.453125 -38.484375 C 32.492188 -36.398438 30.816406 -34.953125 28.421875 -34.140625 C 30.410156 -33.734375 31.847656 -32.742188 32.734375 -31.171875 C 33.617188 -29.597656 34.0625 -27.460938 34.0625 -24.765625 L 33.921875 0 L 21.109375 0 L 21.109375 -25.609375 C 21.109375 -27.441406 20.753906 -28.609375 20.046875 -29.109375 C 19.335938 -29.617188 18.039062 -29.875 16.15625 -29.875 L 16.15625 0 L 2.890625 0 Z M 19.359375 -41.234375 C 21.191406 -41.234375 22.109375 -43.210938 22.109375 -47.171875 C 22.109375 -48.898438 22.03125 -50.195312 21.875 -51.0625 C 21.71875 -51.925781 21.4375 -52.523438 21.03125 -52.859375 C 20.625 -53.191406 20.039062 -53.359375 19.28125 -53.359375 L 16.234375 -53.359375 L 16.234375 -41.234375 Z M 19.359375 -41.234375 "/></g></g></g><g fill="#afafaf" fill-opacity="1"><g transform="translate(219.556749, 75.376243)"><g><path d="M 18.0625 0.609375 C 12.675781 0.609375 8.675781 -0.910156 6.0625 -3.953125 C 3.445312 -7.003906 2.140625 -11.53125 2.140625 -17.53125 L 2.140625 -65.46875 L 14.859375 -65.46875 L 14.859375 -18.0625 C 14.859375 -15.976562 15.0625 -14.351562 15.46875 -13.1875 C 15.875 -12.019531 16.738281 -11.4375 18.0625 -11.4375 C 19.382812 -11.4375 20.25 -12.003906 20.65625 -13.140625 C 21.0625 -14.285156 21.265625 -15.925781 21.265625 -18.0625 L 21.265625 -65.46875 L 34 -65.46875 L 34 -17.53125 C 34 -11.53125 32.6875 -7.003906 30.0625 -3.953125 C 27.445312 -0.910156 23.445312 0.609375 18.0625 0.609375 Z M 18.0625 0.609375 "/></g></g></g><g fill="#afafaf" fill-opacity="1"><g transform="translate(255.685644, 75.376243)"><g><path d="M 1.140625 0 L 7.46875 -65.46875 L 29.65625 -65.46875 L 35.90625 0 L 23.46875 0 L 22.5625 -10.59375 L 14.640625 -10.59375 L 13.875 0 Z M 15.625 -21.03125 L 21.5625 -21.03125 L 18.671875 -54.34375 L 18.0625 -54.34375 Z M 15.625 -21.03125 "/></g></g></g><g fill="#afafaf" fill-opacity="1"><g transform="translate(292.652972, 75.376243)"><g><path d="M 18.4375 0.609375 C 12.5 0.609375 8.207031 -0.863281 5.5625 -3.8125 C 2.914062 -6.757812 1.59375 -11.507812 1.59375 -18.0625 L 1.59375 -24.46875 L 14.484375 -24.46875 L 14.484375 -16.3125 C 14.484375 -13.0625 15.523438 -11.4375 17.609375 -11.4375 C 18.773438 -11.4375 19.585938 -11.773438 20.046875 -12.453125 C 20.503906 -13.140625 20.734375 -14.300781 20.734375 -15.9375 C 20.734375 -18.0625 20.476562 -19.820312 19.96875 -21.21875 C 19.457031 -22.625 18.804688 -23.796875 18.015625 -24.734375 C 17.234375 -25.671875 15.828125 -27.128906 13.796875 -29.109375 L 8.15625 -34.75 C 3.78125 -39.019531 1.59375 -43.75 1.59375 -48.9375 C 1.59375 -54.519531 2.875 -58.769531 5.4375 -61.6875 C 8.007812 -64.613281 11.757812 -66.078125 16.6875 -66.078125 C 22.582031 -66.078125 26.828125 -64.515625 29.421875 -61.390625 C 32.015625 -58.265625 33.3125 -53.375 33.3125 -46.71875 L 19.96875 -46.71875 L 19.890625 -51.21875 C 19.890625 -52.082031 19.644531 -52.769531 19.15625 -53.28125 C 18.675781 -53.789062 18.007812 -54.046875 17.15625 -54.046875 C 16.132812 -54.046875 15.367188 -53.765625 14.859375 -53.203125 C 14.347656 -52.640625 14.09375 -51.878906 14.09375 -50.921875 C 14.09375 -48.785156 15.316406 -46.570312 17.765625 -44.28125 L 25.375 -36.96875 C 27.15625 -35.238281 28.628906 -33.597656 29.796875 -32.046875 C 30.960938 -30.492188 31.898438 -28.664062 32.609375 -26.5625 C 33.328125 -24.457031 33.6875 -21.957031 33.6875 -19.0625 C 33.6875 -12.601562 32.503906 -7.707031 30.140625 -4.375 C 27.773438 -1.050781 23.875 0.609375 18.4375 0.609375 Z M 18.4375 0.609375 "/></g></g></g></svg>