<svg width="40px" height="30px" viewBox="0 0 50 38" fill="none" xmlns="http://www.w3.org/2000/svg">
<path d="M49.6787 8.28132C49.6787 3.88623 46.4459 0.35063 42.4513 0.35063C37.0404 0.0976682 31.5221 0 25.8828 0H24.1247C18.499 0 12.971 0.0976684 7.56014 0.351607C3.57526 0.351607 0.342434 3.90674 0.342434 8.30183C0.0982625 11.7779 -0.00526618 15.2549 0.00059393 18.7319C-0.00917293 22.2089 0.101518 25.6891 0.332667 29.1726C0.332667 33.5677 3.5655 37.1326 7.55037 37.1326C13.2347 37.3963 19.0655 37.5135 24.994 37.5038C30.9322 37.5233 36.7468 37.3996 42.4376 37.1326C46.4322 37.1326 49.6651 33.5677 49.6651 29.1726C49.8995 25.6859 50.0069 22.2089 49.9971 18.7221C50.0193 15.2451 49.9131 11.7648 49.6787 8.28132ZM20.218 28.3131V9.12127L34.3799 18.7123L20.218 28.3131Z" fill="white"/>
</svg>
