<svg width="350" height="134" viewBox="0 0 350 134" fill="none" xmlns="http://www.w3.org/2000/svg">
<g clip-path="url(#clip0_53_572)">
<mask id="mask0_53_572" style="mask-type:luminance" maskUnits="userSpaceOnUse" x="170" y="0" width="9" height="78">
<path d="M170.578 0H178.723V77.7719H170.578V0Z" fill="white"/>
</mask>
<g mask="url(#mask0_53_572)">
<path d="M143.965 80.1871H120.697C119.301 77.6449 116.843 75.4412 112.746 75.1626C103.977 74.5703 78.4842 74.9969 71.4958 75.1274V73.3256H143.965V80.1871ZM143.965 95.384H122.294V92.5914H143.965V95.384ZM122.294 105.553V98.8147H143.965V105.553H122.294ZM122.294 86.3857V83.6143H143.965V89.1607H122.294V86.3857ZM118.863 105.553H114.523V89.4357C114.519 87.7891 114.618 85.6136 113.116 83.8858C111.871 82.4473 110.105 81.6574 107.757 81.6257C99.3755 81.4988 77.7579 81.5834 71.4958 81.6151V78.5581C78.315 78.4312 103.973 78.001 112.513 78.5863C118.747 79.0059 118.863 86.0931 118.863 86.3928V105.553ZM69.1863 92.5526L68.2025 104.834H67.5502V93.0075L72.0952 85.0424C72.7475 85.0388 73.5197 85.0388 74.3941 85.0353L69.1863 92.5526ZM143.965 66.1468V69.8949H71.4958V66.1468H143.965ZM71.4958 24.396H129.201L143.965 60.2197V62.716H71.4958V24.396ZM20.8843 105.592V97.5665L8.36362 82.1546L-56.6514 81.6081L-66.1186 94.3755V105.514L-93.5611 104.876V80.0249H61.9757V106.477L20.8843 105.592ZM-22.7635 92.9123L-28.8916 85.2715L-17.1079 85.3738L-22.7635 92.9123ZM61.9757 73.3256V76.5942H-93.5611V73.3256H61.9757ZM-78.6216 32.1778H-59.0984V69.8949H-78.6216V32.1778ZM-64.3979 17.7601L-55.1634 14.2166L-57.212 8.95937L-46.6553 5.15487L-40.0971 21.3108L-35.6896 19.9603L-32.5797 28.747H-64.3979V17.7601ZM-77.5462 12.0728H-67.8216V28.5072H-77.5462V12.0728ZM-83.23 4.87632L-65.1771 -2.0275L-59.6097 12.2456L-64.3979 14.0861V8.64556H-80.9734V10.4367L-83.23 4.87632ZM-86.2094 20.3024L-91.1211 8.10962L-86.3646 6.25849L-81.4811 18.2961L-86.2094 20.3024ZM171.753 -82.3064L173.628 -77.9236L-58.4602 5.76133L-59.9869 1.844L171.753 -82.3064ZM-24.1739 12.852L-38.1014 17.1184L-43.422 3.98778L-29.7131 -0.955605L-24.1739 12.852ZM-28.9445 28.747L-32.3541 19.1071L-28.1723 17.7566L-24.0081 28.747H-28.9445ZM-1.85107 5.61324H3.64941V35.7425L-9.05811 29.8718L-8.94881 5.61324H-1.85107ZM1.57968 -3.24395H11.6322V2.1825H1.57968V-3.24395ZM21.8962 5.61324L41.1056 53.0479L7.07664 37.3257V5.61324H21.8962ZM-40.0759 69.8949V32.1778H-11.8683L42.3714 57.4059V69.8949H-40.0759ZM-55.6747 67.5466H-43.5031V69.8949H-55.6747V67.5466ZM-43.5031 60.4171V64.1158H-55.6747V60.4171H-43.5031ZM-55.6747 53.2383H-43.5031V56.9864H-55.6747V53.2383ZM-43.5031 45.9995V49.8075H-55.6747V45.9995H-43.5031ZM-55.6747 38.8171H-43.5031V42.5687H-55.6747V38.8171ZM-43.5031 35.3864H-55.6747V32.1778H-43.5031V35.3864ZM147.261 59.2289L131.486 20.9406L131.338 21.0005V20.9652H68.0897V21.5929H68.0685V85.0635H68.1391L65.4029 89.8588V69.8949H45.7986V55.2163L45.6505 55.1458L24.2022 2.1825H15.0559V-6.6747H-1.85107V2.1825H-12.3584L-12.4783 28.747H-20.3447L-24.9214 16.6671L-19.6042 15.0452L-26.4869 -2.11917L178.209 -75.935L173.628 -86.6362L-61.2316 -1.35403L-63.2202 -6.45256L-95.6519 6.0293L-88.0853 24.8262L-80.9734 21.8009V28.747H-82.0488V69.8949H-96.9883V108.225L-62.6914 109.026V95.5074L-54.9378 85.0529L-33.3131 85.2363L-22.6789 98.5009L-12.845 85.4091L6.72404 85.5712L17.457 98.783V108.948L65.4029 109.981V108.268H71.3653L72.5289 93.7444L78.5794 85.0177C87.6764 84.9895 101.357 84.9613 107.704 85.0529C108.998 85.0706 109.89 85.4408 110.468 86.0543C111.117 86.7489 111.099 88.6 111.12 89.1466L111.096 108.987H147.392L147.261 59.2289Z" fill="white"/>
</g>
<path d="M185.222 48.263V52.5858H181.925V48.263H185.222ZM180.67 38.7112L184.22 34.7868L188.448 39.3282V44.8323H180.67V38.7112ZM184.122 56.0483C184.136 56.0377 184.153 56.0272 184.168 56.013H188.649V48.263H191.875V37.9743L186.139 31.818V-76.2842H182.715V31.349L177.246 37.3855V48.263H178.498V56.013H178.931C178.279 56.757 177.719 57.5786 177.306 58.4953C176.308 60.7096 176.164 63.1249 177.225 65.3463C178.18 67.349 180.116 68.7982 182.211 69.4152C184.347 70.0428 186.872 69.9159 188.85 68.8405C190.86 67.7439 192.119 65.3498 191.427 63.0896C190.782 60.9811 187.478 61.8873 188.124 63.9993C188.261 64.4471 188.272 64.3308 188.127 64.7891C188.046 65.0606 187.919 65.2687 187.651 65.512C187.098 66.0126 186.258 66.2489 185.574 66.3229C183.787 66.5063 181.992 65.9703 180.825 64.634C179.771 63.4281 179.64 61.6934 180.31 60.1208C181.054 58.3719 182.584 57.0814 184.122 56.0483Z" fill="white"/>
<mask id="mask1_53_572" style="mask-type:luminance" maskUnits="userSpaceOnUse" x="336" y="54" width="14" height="4">
<path d="M336.686 54.1587H349.323V57.7693H336.686V54.1587Z" fill="white"/>
</mask>
<g mask="url(#mask1_53_572)">
<mask id="mask2_53_572" style="mask-type:luminance" maskUnits="userSpaceOnUse" x="168" y="54" width="182" height="75">
<path d="M173.248 54.7861L349.189 68.9358L344.419 128.256L168.481 114.107L173.248 54.7861Z" fill="white"/>
</mask>
<g mask="url(#mask2_53_572)">
<mask id="mask3_53_572" style="mask-type:luminance" maskUnits="userSpaceOnUse" x="161" y="-90" width="316" height="315">
<path d="M184.89 -89.9717L476.099 -66.5523L452.683 224.656L161.471 201.24L184.89 -89.9717Z" fill="white"/>
</mask>
<g mask="url(#mask3_53_572)">
<mask id="mask4_53_572" style="mask-type:luminance" maskUnits="userSpaceOnUse" x="161" y="-90" width="316" height="315">
<path d="M184.89 -89.9717L476.099 -66.5523L452.683 224.656L161.471 201.24L184.89 -89.9717Z" fill="white"/>
</mask>
<g mask="url(#mask4_53_572)">
<path d="M348.509 56.8102C344.531 56.4893 341.601 55.0296 339.729 52.4275C337.853 49.8288 337.092 46.324 337.448 41.9131L339.338 18.3985C339.68 14.1497 340.97 11.0257 343.216 9.02298C345.462 7.02377 348.576 6.18106 352.556 6.50193C356.541 6.82279 359.485 8.15207 361.382 10.4863C363.275 12.8204 364.054 16.1101 363.716 20.3589L361.823 43.8735C361.466 48.3232 360.151 51.6729 357.888 53.926C355.624 56.1685 352.496 57.1311 348.509 56.8102ZM349.242 47.7203C350.12 47.7908 350.744 47.4594 351.118 46.7225C351.484 45.982 351.724 44.9172 351.837 43.535L353.78 19.3858C353.864 18.3209 353.787 17.4394 353.551 16.7448C353.321 16.0502 352.764 15.6659 351.886 15.5954C350.236 15.4614 349.309 16.6426 349.108 19.1354L347.172 43.2212C347.059 44.6351 347.144 45.7211 347.437 46.4756C347.722 47.2337 348.325 47.6463 349.242 47.7203Z" fill="#AFAFAF"/>
</g>
</g>
</g>
</g>
<mask id="mask5_53_572" style="mask-type:luminance" maskUnits="userSpaceOnUse" x="174" y="58" width="49" height="50">
<path d="M174.21 58.6719H222.953V107.415H174.21V58.6719Z" fill="white"/>
</mask>
<g mask="url(#mask5_53_572)">
<mask id="mask6_53_572" style="mask-type:luminance" maskUnits="userSpaceOnUse" x="168" y="54" width="182" height="75">
<path d="M173.248 54.7861L349.189 68.9358L344.418 128.256L168.48 114.107L173.248 54.7861Z" fill="white"/>
</mask>
<g mask="url(#mask6_53_572)">
<mask id="mask7_53_572" style="mask-type:luminance" maskUnits="userSpaceOnUse" x="161" y="-90" width="316" height="315">
<path d="M184.89 -89.9717L476.098 -66.5523L452.683 224.656L161.471 201.24L184.89 -89.9717Z" fill="white"/>
</mask>
<g mask="url(#mask7_53_572)">
<mask id="mask8_53_572" style="mask-type:luminance" maskUnits="userSpaceOnUse" x="161" y="-90" width="316" height="315">
<path d="M184.89 -89.9717L476.098 -66.5523L452.683 224.656L161.471 201.24L184.89 -89.9717Z" fill="white"/>
</mask>
<g mask="url(#mask8_53_572)">
<path d="M222.336 84.1539C221.796 90.9026 219.043 96.5159 214.082 101.004C209.015 105.602 203.133 107.633 196.434 107.094C189.865 106.565 184.435 103.913 180.148 99.1286C175.769 94.2452 173.843 88.5367 174.369 82.0066C174.922 75.1486 177.771 69.5247 182.933 65.1349C188.088 60.7451 194.093 58.827 200.954 59.3806C207.248 59.8848 212.513 62.568 216.747 67.4268C220.978 72.2856 222.844 77.8636 222.336 84.1539ZM215.57 86.005C216.042 80.1308 214.963 74.9477 212.34 70.4415C209.42 65.4382 205.235 62.7161 199.794 62.2789C194.35 61.8382 189.922 63.654 186.509 67.7195C183.54 71.2983 181.84 75.8115 181.403 81.2556C181.139 84.5312 181.47 87.7751 182.404 90.9837C183.399 94.4744 184.94 97.3269 187.016 99.5341C189.552 102.231 192.704 103.73 196.473 104.033C201.868 104.467 206.346 102.894 209.907 99.312C213.239 95.9482 215.125 91.5126 215.57 86.005Z" fill="#FF3131"/>
</g>
</g>
</g>
</g>
<mask id="mask9_53_572" style="mask-type:luminance" maskUnits="userSpaceOnUse" x="223" y="77" width="23" height="33">
<path d="M223.856 77.6274H245.519V109.22H223.856V77.6274Z" fill="white"/>
</mask>
<g mask="url(#mask9_53_572)">
<mask id="mask10_53_572" style="mask-type:luminance" maskUnits="userSpaceOnUse" x="168" y="54" width="182" height="75">
<path d="M173.248 54.7861L349.189 68.9358L344.419 128.256L168.481 114.107L173.248 54.7861Z" fill="white"/>
</mask>
<g mask="url(#mask10_53_572)">
<mask id="mask11_53_572" style="mask-type:luminance" maskUnits="userSpaceOnUse" x="161" y="-90" width="316" height="315">
<path d="M184.89 -89.9717L476.099 -66.5523L452.683 224.656L161.471 201.24L184.89 -89.9717Z" fill="white"/>
</mask>
<g mask="url(#mask11_53_572)">
<mask id="mask12_53_572" style="mask-type:luminance" maskUnits="userSpaceOnUse" x="161" y="-90" width="316" height="315">
<path d="M184.89 -89.9717L476.099 -66.5523L452.683 224.656L161.471 201.24L184.89 -89.9717Z" fill="white"/>
</mask>
<g mask="url(#mask12_53_572)">
<path d="M244.874 84.2951C244.697 86.4882 244.232 87.5531 243.481 87.4931C243.107 87.4614 242.229 86.7139 240.854 85.24C239.472 83.7627 238.231 82.9799 237.134 82.8918C235.95 82.7966 234.913 83.1879 234.01 84.0694C233.111 84.9403 232.61 85.9805 232.515 87.1828C232.434 88.1983 233.206 89.5734 234.846 91.3153C237.864 94.4816 239.405 96.1 239.472 96.1705C241.09 98.2226 241.831 100.134 241.686 101.904C241.51 104.097 240.48 105.832 238.594 107.101C236.863 108.268 234.864 108.758 232.603 108.575C230.738 108.423 228.996 107.905 227.367 107.016C225.315 105.877 224.356 104.492 224.487 102.866C224.688 100.366 225.188 99.1499 225.989 99.2134C226.013 99.2169 226.087 99.2345 226.207 99.2663C228.623 101.89 230.773 103.275 232.66 103.427C234.878 103.603 236.066 102.715 236.221 100.758C236.288 99.9574 235.72 98.8537 234.536 97.4469C232.663 95.2855 231.539 93.9174 231.165 93.3391C230.008 91.5127 229.504 89.6722 229.656 87.8105C229.864 85.2118 230.763 83.0081 232.35 81.1852C234.105 79.1472 236.239 78.2269 238.739 78.4279C239.652 78.5019 240.759 78.8651 242.06 79.5139C243.495 80.2473 244.373 80.9877 244.69 81.7282C244.909 82.243 244.969 83.0998 244.874 84.2951Z" fill="#FF3131"/>
</g>
</g>
</g>
</g>
<mask id="mask13_53_572" style="mask-type:luminance" maskUnits="userSpaceOnUse" x="246" y="79" width="33" height="33">
<path d="M246.422 79.4326H278.917V111.928H246.422V79.4326Z" fill="white"/>
</mask>
<g mask="url(#mask13_53_572)">
<mask id="mask14_53_572" style="mask-type:luminance" maskUnits="userSpaceOnUse" x="168" y="54" width="182" height="75">
<path d="M173.248 54.7861L349.189 68.9358L344.418 128.256L168.48 114.107L173.248 54.7861Z" fill="white"/>
</mask>
<g mask="url(#mask14_53_572)">
<mask id="mask15_53_572" style="mask-type:luminance" maskUnits="userSpaceOnUse" x="161" y="-90" width="316" height="315">
<path d="M184.89 -89.9717L476.098 -66.5523L452.683 224.656L161.471 201.24L184.89 -89.9717Z" fill="white"/>
</mask>
<g mask="url(#mask15_53_572)">
<mask id="mask16_53_572" style="mask-type:luminance" maskUnits="userSpaceOnUse" x="161" y="-90" width="316" height="315">
<path d="M184.89 -89.9717L476.098 -66.5523L452.683 224.656L161.471 201.24L184.89 -89.9717Z" fill="white"/>
</mask>
<g mask="url(#mask16_53_572)">
<path d="M278.324 85.1023C278.208 86.5198 277.464 88.4273 276.092 90.8355C275.017 92.6725 273.938 94.506 272.863 96.3395C272.242 97.5912 271.685 98.7936 271.195 99.9431C270.373 101.84 269.922 103.296 269.841 104.315C269.728 105.708 269.993 106.427 270.631 106.48C271.195 106.526 272.02 106.099 273.106 105.2C274.185 104.305 274.985 103.874 275.504 103.917C276.209 103.973 276.537 104.283 276.491 104.851C276.378 106.258 275.052 107.714 272.514 109.22C270.116 110.637 268.17 111.29 266.664 111.166C265.384 111.064 264.799 110.38 264.901 109.107C264.996 107.929 265.508 106.251 266.442 104.079C267.38 101.9 267.898 100.222 267.993 99.0369C268.067 98.1166 267.856 97.6336 267.366 97.5948C266.629 97.5348 265.247 98.6138 263.223 100.828C260.31 104.005 258.297 106.061 257.183 106.998C254.581 109.156 252.243 110.154 250.177 109.988C249.161 109.907 248.389 109.368 247.85 108.37C247.395 107.527 247.215 106.568 247.303 105.482C247.504 102.968 248.939 99.6222 251.612 95.4475C254.284 91.2763 255.695 88.2898 255.839 86.4951C255.928 85.3879 255.536 84.7956 254.662 84.7286C253.932 84.6686 252.976 85.06 251.795 85.8992C250.61 86.7419 249.852 87.1474 249.524 87.1227C248.981 87.0804 248.728 86.823 248.766 86.354C248.886 84.8485 250.18 83.364 252.641 81.9008C254.983 80.5221 256.943 79.891 258.519 80.0179C259.492 80.0955 260.257 80.5292 260.822 81.3155C261.386 82.0912 261.629 82.9656 261.551 83.9388C261.368 86.22 259.905 89.3687 257.165 93.3777C254.426 97.3938 252.966 100.497 252.789 102.686C252.68 104.03 252.945 104.728 253.586 104.777C255.469 104.929 258.445 102.573 262.507 97.7041C265.395 94.291 267.859 90.9307 269.901 87.6269C270.405 86.7243 271.213 85.3844 272.323 83.6179C273.427 82.0488 274.576 81.3084 275.775 81.4071C276.65 81.4741 277.327 81.9043 277.81 82.68C278.222 83.3958 278.395 84.2067 278.324 85.1023Z" fill="#FF3131"/>
</g>
</g>
</g>
</g>
<mask id="mask17_53_572" style="mask-type:luminance" maskUnits="userSpaceOnUse" x="278" y="82" width="34" height="32">
<path d="M278.917 82.1406H311.412V113.733H278.917V82.1406Z" fill="white"/>
</mask>
<g mask="url(#mask17_53_572)">
<mask id="mask18_53_572" style="mask-type:luminance" maskUnits="userSpaceOnUse" x="168" y="54" width="182" height="75">
<path d="M173.248 54.7861L349.189 68.9358L344.418 128.256L168.48 114.107L173.248 54.7861Z" fill="white"/>
</mask>
<g mask="url(#mask18_53_572)">
<mask id="mask19_53_572" style="mask-type:luminance" maskUnits="userSpaceOnUse" x="161" y="-90" width="316" height="315">
<path d="M184.89 -89.9717L476.098 -66.5523L452.683 224.656L161.471 201.24L184.89 -89.9717Z" fill="white"/>
</mask>
<g mask="url(#mask19_53_572)">
<mask id="mask20_53_572" style="mask-type:luminance" maskUnits="userSpaceOnUse" x="161" y="-90" width="316" height="315">
<path d="M184.89 -89.9717L476.098 -66.5523L452.683 224.656L161.471 201.24L184.89 -89.9717Z" fill="white"/>
</mask>
<g mask="url(#mask20_53_572)">
<path d="M308.982 107.316C308.863 108.821 307.547 110.302 305.037 111.762C302.667 113.144 300.696 113.768 299.12 113.641C296.719 113.451 295.605 112.245 295.785 110.027C295.958 107.862 297.474 104.693 300.333 100.525C303.193 96.3537 304.705 93.2262 304.875 91.1459C304.973 89.9012 304.698 89.2525 304.043 89.1996C301.726 89.0127 297.463 93.1874 291.25 101.724C290.485 102.707 289.382 104.231 287.94 106.297C287.457 107.21 286.674 108.561 285.588 110.345C284.484 111.917 283.363 112.658 282.231 112.566C280.211 112.404 279.29 111.177 279.474 108.888C279.594 107.432 280.334 105.525 281.706 103.169C283.715 99.7492 284.78 97.9016 284.9 97.6231L286.018 95.1126C287.026 92.8736 287.569 91.294 287.643 90.3702C287.799 88.4626 287.534 87.4789 286.854 87.426C286.311 87.3837 285.493 87.8174 284.392 88.7306C283.299 89.6368 282.51 90.0669 282.016 90.0282C281.339 89.9753 281.022 89.665 281.068 89.0973C281.18 87.6834 282.496 86.1955 285.017 84.6405C287.411 83.1702 289.353 82.4967 290.831 82.6166C292.245 82.7294 292.908 83.4029 292.809 84.6299C292.714 85.79 292.234 87.4366 291.37 89.5733C290.517 91.71 290.041 93.3531 289.949 94.5026C289.854 95.6838 290.101 96.2973 290.693 96.3431C291.399 96.3996 292.742 95.3241 294.727 93.1134C297.565 89.8977 299.508 87.8527 300.559 86.9641C303.052 84.7886 305.277 83.7767 307.237 83.9353C308.344 84.0235 309.187 84.5171 309.769 85.4092C310.347 86.2942 310.594 87.3026 310.502 88.4344C310.329 90.6064 308.87 94.009 306.126 98.6491C303.33 103.381 301.885 106.304 301.797 107.411C301.723 108.331 302.128 108.829 303.02 108.899C303.753 108.959 304.705 108.568 305.873 107.725C307.047 106.886 307.808 106.477 308.157 106.505C308.746 106.551 309.025 106.826 308.982 107.316Z" fill="#FF3131"/>
</g>
</g>
</g>
</g>
<mask id="mask21_53_572" style="mask-type:luminance" maskUnits="userSpaceOnUse" x="312" y="83" width="32" height="35">
<path d="M312.315 83.9458H343.907V117.344H312.315V83.9458Z" fill="white"/>
</mask>
<g mask="url(#mask21_53_572)">
<mask id="mask22_53_572" style="mask-type:luminance" maskUnits="userSpaceOnUse" x="168" y="54" width="182" height="75">
<path d="M173.248 54.7861L349.189 68.9358L344.419 128.256L168.481 114.107L173.248 54.7861Z" fill="white"/>
</mask>
<g mask="url(#mask22_53_572)">
<mask id="mask23_53_572" style="mask-type:luminance" maskUnits="userSpaceOnUse" x="161" y="-90" width="316" height="315">
<path d="M184.89 -89.9717L476.099 -66.5523L452.683 224.656L161.471 201.24L184.89 -89.9717Z" fill="white"/>
</mask>
<g mask="url(#mask23_53_572)">
<mask id="mask24_53_572" style="mask-type:luminance" maskUnits="userSpaceOnUse" x="161" y="-90" width="316" height="315">
<path d="M184.89 -89.9717L476.099 -66.5523L452.683 224.656L161.471 201.24L184.89 -89.9717Z" fill="white"/>
</mask>
<g mask="url(#mask24_53_572)">
<path d="M343.23 107.115C343.107 108.652 341.689 110.623 338.981 113.024C336.273 115.422 334.154 116.557 332.628 116.434C330.248 116.243 329.162 114.854 329.37 112.266C329.415 111.723 329.574 110.933 329.856 109.886C330.142 108.842 330.308 108.049 330.353 107.506C330.403 106.871 330.237 106.533 329.86 106.505C329.669 106.487 327.801 107.986 324.246 110.997C320.696 114.008 318.122 115.45 316.521 115.323C315.178 115.214 314.148 114.6 313.436 113.475C312.759 112.442 312.477 111.244 312.586 109.875C312.935 105.542 315.393 100.807 319.959 95.6694C324.839 90.1584 329.768 87.1155 334.75 86.5372C335.773 86.4596 337.289 86.301 339.306 86.0612C341.09 85.0422 342.077 84.538 342.271 84.5556C342.952 84.6085 343.258 85.0493 343.191 85.8743C343.16 86.2939 342.997 86.8052 342.715 87.3975L337.596 97.9049C335.41 102.404 334.232 105.715 334.063 107.841C333.911 109.706 334.613 110.697 336.168 110.82C336.806 110.873 337.973 110.119 339.669 108.56C341.376 106.998 342.38 106.226 342.691 106.251C343.093 106.286 343.272 106.575 343.23 107.115ZM335.561 92.697C335.632 91.8226 334.912 91.3254 333.41 91.2056L332.948 91.1703C330.188 90.9482 326.951 92.7394 323.234 96.5439C319.613 100.257 317.692 103.532 317.463 106.36C317.307 108.271 317.928 109.28 319.321 109.392C321.785 109.59 325.086 107.471 329.222 103.032C333.238 98.7335 335.353 95.2886 335.561 92.697Z" fill="#FF3131"/>
</g>
</g>
</g>
</g>
<path d="M15.1818 118.846C10.9224 118.846 7.74905 117.348 5.66168 114.347C3.57432 111.35 2.53064 106.801 2.53064 100.709V75.2795C2.53064 69.8284 3.74357 65.703 6.16942 62.9105C8.60233 60.1108 12.2235 58.7075 17.0294 58.7075C20.922 58.7075 23.9437 59.4903 26.0981 61.0488C28.2595 62.6002 29.751 64.8674 30.569 67.8468C31.3941 70.8297 31.8101 74.6554 31.8101 79.3273H20.2591V74.0384C20.2591 72.6209 20.0617 71.5208 19.6668 70.7381C19.2789 69.9588 18.5843 69.5675 17.5794 69.5675C15.3298 69.5675 14.2086 71.0342 14.2086 73.9678V102.556C14.2086 104.344 14.4378 105.698 14.8997 106.618C15.358 107.531 16.162 107.986 17.3114 107.986C18.4574 107.986 19.2578 107.531 19.7091 106.618C20.1674 105.698 20.4002 104.344 20.4002 102.556V94.1081H17.2409V83.9251H31.6691V118.296H26.9302L24.9416 113.346C22.8331 117.013 19.5821 118.846 15.1818 118.846Z" fill="#AFAFAF"/>
<path d="M36.3436 59.2578H54.4952C57.3795 59.2578 59.6149 59.9136 61.1945 61.2182C62.7742 62.5264 63.8355 64.3599 64.382 66.7187C64.9356 69.0811 65.2141 72.0923 65.2141 75.7593C65.2141 79.0983 64.7769 81.7075 63.9025 83.5869C63.0351 85.4697 61.526 86.7743 59.3751 87.5077C61.1593 87.8744 62.4533 88.77 63.2537 90.1875C64.0506 91.6084 64.4525 93.5301 64.4525 95.9559L64.3115 118.296H52.7746V95.2084C52.7746 93.5547 52.4502 92.5005 51.8014 92.0492C51.1597 91.5908 49.9961 91.3581 48.3037 91.3581V118.296H36.3436V59.2578ZM51.1949 81.1187C52.838 81.1187 53.6631 79.3346 53.6631 75.7593C53.6631 74.2008 53.5926 73.0302 53.4515 72.2474C53.3176 71.4682 53.0707 70.9322 52.704 70.6396C52.3373 70.3399 51.8084 70.1883 51.1244 70.1883H48.3742V81.1187H51.1949Z" fill="#AFAFAF"/>
<path d="M82.8078 118.846C77.9455 118.846 74.335 117.475 71.9761 114.728C69.6137 111.974 68.436 107.895 68.436 102.486V59.2578H79.9165V102.006C79.9165 103.889 80.0999 105.356 80.4666 106.407C80.8333 107.461 81.6125 107.986 82.8078 107.986C83.9996 107.986 84.7823 107.475 85.149 106.449C85.5157 105.416 85.6991 103.935 85.6991 102.006V59.2578H97.1655V102.486C97.1655 107.895 95.9843 111.974 93.6254 114.728C91.263 117.475 87.6595 118.846 82.8078 118.846Z" fill="#AFAFAF"/>
<path d="M100.125 118.296L105.837 59.2578H125.836L131.464 118.296H120.265L119.433 108.748H112.297L111.605 118.296H100.125ZM113.185 99.3267H118.545L115.935 69.2997H115.385L113.185 99.3267Z" fill="#AFAFAF"/>
<path d="M149.057 118.846C143.698 118.846 139.823 117.52 137.436 114.869C135.056 112.21 133.867 107.923 133.867 102.006V96.2377H145.489V103.586C145.489 106.519 146.427 107.986 148.31 107.986C149.36 107.986 150.09 107.676 150.496 107.055C150.908 106.435 151.116 105.398 151.116 103.938C151.116 102.013 150.884 100.42 150.425 99.1572C149.974 97.8985 149.389 96.8442 148.676 95.998C147.971 95.1518 146.702 93.8366 144.868 92.0489L139.777 86.9574C135.835 83.1142 133.867 78.8548 133.867 74.1794C133.867 69.1408 135.024 65.3046 137.337 62.6707C139.657 60.0298 143.038 58.7075 147.478 58.7075C152.788 58.7075 156.617 60.1179 158.958 62.9387C161.299 65.7524 162.47 70.1598 162.47 76.168H150.439L150.369 72.1061C150.369 71.3375 150.147 70.7204 149.706 70.2585C149.272 69.8002 148.666 69.5675 147.887 69.5675C146.973 69.5675 146.286 69.8213 145.827 70.3291C145.376 70.8297 145.15 71.5138 145.15 72.3882C145.15 74.3169 146.244 76.3091 148.437 78.3682L155.319 84.9688C156.917 86.5202 158.242 87.9976 159.297 89.3974C160.347 90.8007 161.194 92.4509 161.835 94.3478C162.484 96.2483 162.808 98.5049 162.808 101.118C162.808 106.939 161.74 111.35 159.607 114.347C157.481 117.348 153.965 118.846 149.057 118.846Z" fill="#AFAFAF"/>
</g>
<defs>
<clipPath id="clip0_53_572">
<rect width="350" height="133.366" fill="white"/>
</clipPath>
</defs>
</svg>
